<?xml version="1.0" standalone="no"?>
<!DOCTYPE svg PUBLIC "-//W3C//DTD SVG 20010904//EN"
 "http://www.w3.org/TR/2001/REC-SVG-20010904/DTD/svg10.dtd">
<svg version="1.0" xmlns="http://www.w3.org/2000/svg"
 width="1296.000000pt" height="1510.000000pt" viewBox="0 0 1296.000000 1510.000000"
 preserveAspectRatio="xMidYMid meet">
<metadata>
Created by potrace 1.15, written by Peter Selinger 2001-2017
</metadata>
<g transform="translate(0.000000,1510.000000) scale(0.100000,-0.100000)"
fill="#000000" stroke="none">
<path d="M6085 14913 c-348 -27 -620 -64 -875 -118 -36 -8 -81 -17 -100 -20
-19 -4 -48 -11 -65 -15 -16 -5 -70 -19 -120 -31 -49 -12 -108 -27 -130 -34
-22 -7 -65 -20 -95 -29 -30 -9 -109 -35 -175 -57 -66 -22 -134 -44 -150 -48
-17 -4 -39 -13 -50 -18 -11 -6 -38 -18 -60 -26 -216 -81 -579 -249 -740 -342
-33 -19 -67 -38 -75 -42 -43 -20 -299 -176 -390 -238 -226 -154 -259 -177
-370 -266 -154 -122 -224 -180 -340 -284 -60 -54 -416 -409 -466 -465 -202
-227 -363 -436 -530 -685 -37 -55 -79 -118 -94 -140 -27 -40 -150 -247 -163
-275 -4 -8 -17 -31 -28 -50 -27 -44 -169 -327 -199 -395 -12 -27 -32 -72 -45
-100 -23 -50 -53 -124 -82 -200 -9 -22 -19 -49 -24 -60 -33 -80 -42 -104 -50
-130 -4 -16 -24 -77 -44 -135 -41 -117 -49 -142 -98 -320 -49 -176 -87 -346
-121 -540 -30 -173 -35 -206 -41 -255 -3 -27 -12 -108 -20 -180 -74 -671 -16
-1477 155 -2115 36 -135 105 -365 127 -425 9 -22 22 -58 30 -80 8 -22 21 -55
29 -73 8 -18 14 -38 14 -46 0 -7 16 -50 36 -97 19 -46 39 -93 43 -104 9 -21
27 -61 81 -180 37 -80 101 -207 159 -315 22 -41 44 -82 48 -90 7 -15 152 -258
176 -294 98 -153 314 -458 336 -476 4 -3 31 -36 61 -75 30 -38 65 -83 80 -99
279 -327 640 -672 932 -892 57 -43 108 -82 113 -86 127 -103 487 -332 715
-457 86 -46 307 -157 393 -195 110 -50 162 -73 207 -90 25 -10 54 -22 65 -27
11 -4 45 -18 75 -29 30 -12 66 -26 80 -32 14 -6 57 -21 95 -33 39 -13 81 -28
95 -33 35 -14 212 -67 287 -86 35 -9 89 -16 122 -16 57 0 132 -17 199 -46 18
-8 37 -14 43 -14 6 0 25 -6 42 -14 50 -22 117 -43 185 -60 72 -18 269 -21 372
-6 36 5 146 12 245 16 156 5 198 3 310 -15 72 -11 146 -25 165 -30 19 -5 78
-19 130 -31 52 -12 149 -34 215 -50 177 -43 254 -58 315 -65 30 -3 62 -10 70
-16 24 -16 -175 6 -267 30 -106 27 -131 33 -173 40 -25 4 -55 13 -67 19 -12 7
-36 12 -53 12 -17 0 -47 7 -67 15 -19 8 -52 15 -71 15 -20 0 -54 6 -77 14
-113 39 -412 53 -605 28 -141 -17 -431 -16 -456 3 -10 8 -30 15 -44 15 -14 0
-38 7 -54 15 -15 8 -33 15 -40 15 -6 0 -23 6 -38 14 -15 8 -42 17 -60 21 -18
4 -37 11 -43 15 -9 7 -42 16 -150 40 -22 5 -64 9 -94 10 -29 0 -74 7 -100 14
-25 8 -73 23 -106 32 -33 9 -69 21 -80 27 -11 6 -36 14 -55 18 -19 4 -60 17
-90 29 -30 12 -66 24 -80 27 -14 3 -34 12 -45 19 -11 8 -29 14 -40 14 -12 0
-30 7 -41 15 -10 8 -29 15 -40 15 -12 0 -27 7 -34 15 -7 8 -20 15 -29 15 -10
0 -26 7 -37 15 -10 8 -25 15 -32 15 -7 0 -39 12 -70 26 -31 15 -82 37 -112 51
-54 24 -181 86 -210 103 -8 4 -37 20 -65 34 -101 51 -151 78 -180 96 -16 10
-54 31 -82 46 -29 15 -53 31 -53 36 0 4 -6 8 -13 8 -8 0 -33 13 -55 30 -23 16
-44 30 -47 30 -3 0 -28 16 -55 35 -27 19 -53 35 -56 35 -3 0 -23 14 -44 30
-21 17 -41 30 -44 30 -4 0 -52 34 -106 75 -54 41 -104 75 -109 75 -6 0 -14 6
-18 13 -4 7 -45 41 -89 75 -45 34 -88 67 -95 75 -8 7 -51 43 -96 80 -93 76
-192 168 -342 317 -126 125 -332 345 -344 366 -4 8 -20 26 -34 42 -14 15 -41
47 -61 72 -20 25 -41 50 -46 55 -6 6 -15 18 -21 26 -5 9 -29 41 -53 70 -45 57
-51 66 -67 91 -10 15 -70 101 -167 235 -27 36 -48 72 -48 79 0 8 -4 14 -8 14
-5 0 -14 10 -21 23 -6 12 -20 36 -31 52 -11 17 -24 39 -30 50 -6 11 -21 38
-33 60 -13 22 -32 56 -42 75 -11 19 -25 42 -32 50 -20 26 -173 330 -173 345 0
8 -4 15 -9 15 -5 0 -13 10 -16 23 -4 12 -20 51 -37 87 -17 36 -37 81 -45 100
-8 19 -21 48 -29 63 -8 16 -14 36 -14 46 0 9 -4 21 -9 27 -10 9 -34 72 -53
134 -5 19 -14 39 -19 44 -5 6 -9 17 -9 25 0 13 -18 64 -51 146 -4 11 -11 36
-15 55 -3 19 -10 40 -15 46 -5 6 -13 31 -19 55 -5 24 -17 69 -26 99 -19 63
-41 152 -56 225 -6 28 -17 67 -24 88 -8 20 -14 55 -14 78 0 22 -7 56 -15 76
-8 19 -15 55 -15 80 0 24 -7 60 -15 80 -8 19 -15 65 -15 102 0 36 -5 82 -11
101 -21 65 -32 322 -33 755 0 414 12 685 33 770 6 22 10 63 10 90 -1 28 -3 41
-6 30 -7 -27 -22 -43 -25 -24 -9 69 -19 -390 -19 -896 0 -657 6 -899 22 -890
18 11 29 -47 29 -150 0 -95 2 -104 20 -110 18 -6 20 -15 20 -97 0 -77 3 -92
20 -106 15 -13 21 -33 24 -79 4 -45 10 -67 25 -82 17 -17 21 -34 21 -81 0 -47
4 -64 20 -80 15 -15 20 -33 20 -76 0 -32 4 -53 9 -49 17 10 31 -31 31 -86 0
-29 3 -49 7 -46 15 16 33 -18 33 -64 0 -35 4 -49 14 -49 18 0 26 -22 26 -71 0
-27 4 -38 11 -33 17 10 29 -16 29 -69 0 -26 3 -46 8 -46 25 4 32 -4 32 -42 0
-32 4 -42 20 -46 16 -4 20 -14 20 -50 0 -36 4 -46 20 -50 19 -5 25 -19 22 -55
-1 -10 7 -22 18 -28 12 -7 22 -26 26 -50 4 -22 12 -40 19 -40 16 0 25 -23 25
-62 0 -17 3 -28 7 -25 10 11 33 -14 33 -37 0 -12 9 -29 20 -39 13 -11 20 -29
20 -52 0 -24 4 -34 11 -29 15 9 29 -15 29 -50 0 -16 3 -26 7 -23 11 11 33 -14
33 -38 0 -14 7 -25 20 -28 14 -3 20 -14 20 -31 0 -14 9 -34 20 -43 11 -10 20
-24 20 -32 0 -7 11 -24 25 -37 14 -13 25 -32 25 -44 0 -11 5 -20 11 -20 5 0
15 -13 20 -30 6 -16 15 -28 21 -27 6 1 15 -11 20 -27 6 -16 19 -37 29 -47 11
-11 19 -27 19 -37 0 -9 9 -23 20 -30 11 -7 20 -21 20 -32 0 -13 7 -20 20 -20
13 0 20 -7 20 -20 0 -10 12 -32 26 -47 14 -15 32 -35 40 -44 8 -9 14 -23 14
-32 0 -8 9 -19 20 -22 11 -3 20 -13 20 -20 0 -13 13 -30 71 -90 10 -12 19 -25
19 -30 0 -6 9 -16 20 -23 11 -7 20 -17 20 -22 0 -6 8 -19 18 -29 9 -11 35 -40
57 -66 22 -25 52 -59 67 -75 16 -17 28 -35 28 -40 0 -6 7 -10 15 -10 14 0 19
-12 16 -32 0 -5 8 -8 18 -8 11 0 23 -9 26 -20 3 -11 11 -20 16 -20 5 0 14 -11
19 -25 5 -14 16 -25 25 -25 8 0 15 -9 15 -20 0 -13 7 -20 20 -20 13 0 20 -7
20 -20 0 -12 7 -20 16 -20 9 0 18 -9 21 -19 3 -11 15 -21 27 -23 13 -2 20 -10
20 -21 -1 -9 4 -17 10 -17 7 0 28 -17 47 -38 19 -21 43 -41 52 -45 9 -3 17
-13 17 -22 0 -8 9 -15 19 -15 11 0 23 -9 26 -20 3 -11 13 -20 22 -20 8 0 17
-9 20 -20 3 -11 12 -20 20 -20 8 0 17 -9 20 -20 3 -11 12 -20 20 -20 9 0 34
-20 57 -43 22 -24 49 -47 59 -50 9 -4 17 -13 17 -22 0 -9 9 -15 25 -15 18 0
25 -5 25 -20 0 -14 7 -20 21 -20 12 0 23 -8 26 -20 3 -11 13 -20 22 -20 10 0
27 -11 39 -25 12 -14 29 -25 37 -25 8 0 15 -7 15 -15 0 -9 9 -15 21 -15 12 0
23 -8 26 -20 3 -11 14 -20 24 -20 10 0 26 -11 35 -25 9 -14 25 -25 36 -25 11
0 22 -8 25 -19 3 -11 11 -17 19 -14 7 2 24 -6 36 -20 13 -13 32 -26 43 -29 11
-2 19 -11 19 -21 -1 -12 6 -17 27 -17 26 0 34 -9 30 -32 0 -5 12 -8 28 -8 29
0 57 -21 44 -33 -3 -4 5 -7 19 -7 26 0 53 -22 41 -33 -3 -4 8 -7 25 -7 19 0
36 -7 44 -19 8 -11 26 -23 41 -26 15 -4 27 -13 27 -20 0 -8 12 -15 28 -17 17
-2 31 -12 37 -26 6 -14 18 -22 30 -21 41 3 54 -2 60 -21 4 -13 15 -20 32 -20
16 0 27 -7 30 -20 4 -16 14 -20 44 -20 36 0 44 -7 40 -33 0 -4 15 -7 35 -7 27
0 37 -5 41 -20 4 -15 14 -20 38 -20 32 0 61 -20 48 -33 -3 -4 10 -7 30 -7 45
0 67 -8 67 -26 0 -8 10 -14 24 -14 35 0 56 -10 56 -26 0 -10 12 -14 40 -14 26
0 47 -7 59 -19 10 -10 35 -21 55 -25 20 -4 40 -15 46 -26 7 -14 20 -19 44 -18
38 1 56 -7 56 -27 0 -10 16 -15 58 -17 47 -2 57 -6 56 -20 -2 -15 7 -18 53
-18 46 0 56 -3 60 -20 4 -16 15 -20 72 -22 56 -3 66 -6 65 -21 -2 -14 7 -17
45 -17 60 0 91 -9 91 -26 0 -11 25 -14 121 -14 115 0 166 -10 154 -31 -4 -5
13 -9 40 -9 48 0 89 -15 80 -29 -2 -5 19 -11 47 -13 31 -3 56 -12 63 -22 9
-11 28 -16 64 -16 58 0 91 -13 91 -35 0 -13 29 -15 186 -15 159 0 185 2 181
15 -11 26 60 35 280 35 213 0 263 -7 263 -35 0 -12 15 -15 84 -15 92 0 116 -5
116 -26 0 -10 22 -14 88 -16 76 -3 87 -5 86 -21 -2 -15 8 -17 70 -17 87 0 119
-8 112 -26 -4 -11 11 -14 74 -14 43 0 82 -4 85 -10 8 -14 512 -14 520 0 3 6
22 10 41 10 27 0 34 4 34 20 0 15 7 20 25 20 18 0 25 5 25 20 0 11 7 20 15 20
9 0 20 11 25 25 5 14 16 25 24 25 8 0 16 10 18 22 2 15 9 22 21 21 15 -1 18 5
15 35 l-3 37 58 3 c39 2 57 7 57 16 0 20 23 26 106 26 57 0 74 3 74 14 0 19
23 26 90 26 49 0 58 3 56 18 -1 15 10 17 77 20 52 2 75 6 71 14 -11 17 17 28
74 28 36 0 51 4 46 11 -11 18 17 29 74 29 38 0 52 4 52 14 0 22 17 29 65 28
34 -1 44 3 48 17 3 13 18 21 47 26 23 4 51 16 61 26 12 12 33 19 59 19 27 0
40 4 40 14 0 15 30 26 73 26 16 0 26 4 22 9 -8 14 28 31 63 31 21 0 31 6 35
20 4 16 14 20 48 20 23 0 39 3 36 7 -13 13 16 33 48 33 24 0 34 5 38 20 4 16
14 20 45 20 32 0 39 4 38 18 -1 13 8 18 37 20 29 3 37 7 37 23 0 15 7 19 38
19 29 0 39 5 47 23 6 12 20 23 33 25 13 2 32 12 43 23 10 10 28 19 39 19 11 0
20 6 20 14 0 16 21 26 57 26 15 0 23 3 20 7 -12 11 14 33 39 33 15 0 24 6 24
15 0 9 12 18 29 21 17 4 31 14 34 25 4 13 14 19 35 19 21 0 31 6 35 20 3 14
14 20 31 20 19 0 26 5 26 20 0 15 7 20 25 20 14 0 29 8 35 20 6 11 21 22 34
26 13 3 27 15 29 26 4 14 11 19 22 15 9 -4 24 3 37 18 12 14 26 25 32 25 6 0
17 9 24 20 7 11 22 20 34 20 12 0 18 3 15 7 -11 10 13 33 34 33 11 0 19 6 19
14 0 8 14 19 30 25 17 5 30 16 30 24 0 8 11 19 25 25 14 6 25 16 25 22 0 5 8
10 19 10 10 0 21 9 24 20 3 12 14 20 26 20 12 0 21 6 21 15 0 9 10 19 23 24
12 5 39 26 59 47 64 66 85 84 95 84 6 0 13 9 16 20 3 12 14 20 26 20 14 0 21
6 21 20 0 13 7 20 20 20 13 0 20 7 20 20 0 13 7 20 20 20 13 0 20 7 20 20 0
13 7 20 19 20 10 0 21 9 24 20 3 11 11 20 19 20 7 0 18 10 23 23 6 12 16 21
23 19 7 -1 12 4 12 11 0 7 11 23 25 35 14 12 25 26 25 32 0 5 6 10 14 10 7 0
16 9 19 20 3 11 12 20 20 20 9 0 19 9 22 20 3 11 13 20 21 20 8 0 14 6 14 13
0 7 31 46 70 87 96 104 100 109 100 120 0 5 9 15 20 22 11 7 20 19 20 26 0 7
7 15 15 19 9 3 22 17 29 32 8 14 30 43 50 63 20 20 36 44 36 53 0 8 5 15 10
15 6 0 16 11 22 25 6 13 19 27 30 30 11 4 18 16 18 32 0 16 7 27 20 30 11 3
20 14 20 25 0 11 9 22 20 25 11 3 20 14 20 24 0 11 9 28 20 39 11 11 20 27 20
35 0 9 7 18 15 22 9 3 22 21 30 39 8 19 19 34 24 34 6 0 11 11 11 24 0 14 9
31 20 39 10 7 24 25 29 40 6 15 15 27 20 27 5 0 12 14 16 31 4 19 15 33 26 36
13 4 19 14 19 34 0 26 9 34 33 30 4 0 7 14 7 33 0 33 20 62 33 49 4 -3 7 5 7
20 0 36 10 57 26 57 8 0 14 9 14 19 0 30 11 51 26 51 8 0 14 10 14 23 0 37 12
67 25 67 8 0 16 17 20 39 4 22 12 42 20 45 7 2 16 20 20 38 4 18 16 41 26 51
12 11 19 32 19 53 0 27 5 37 20 41 15 4 20 14 20 38 0 33 28 72 32 44 1 -8 4
15 7 51 5 54 9 65 24 64 13 -1 17 6 17 33 0 39 17 76 31 68 5 -4 9 16 9 48 0
51 17 87 33 70 4 -3 7 14 7 40 0 55 7 77 26 77 10 0 14 13 14 43 0 56 9 87 26
87 10 0 14 15 15 53 1 60 10 99 23 97 17 -3 26 25 26 81 0 43 5 60 20 74 17
15 20 31 20 97 0 71 2 80 20 85 18 5 20 14 20 87 0 102 9 156 25 156 22 0 27
187 27 990 -1 794 -6 1005 -24 994 -20 -13 -28 22 -28 127 0 96 -2 107 -19
112 -16 4 -19 16 -22 89 -3 64 -8 89 -21 102 -13 13 -18 34 -18 75 0 49 -4 61
-22 73 -18 12 -23 27 -26 84 -3 46 -10 72 -20 80 -9 6 -18 36 -22 75 -4 35 -8
60 -9 55 0 -5 -8 -3 -16 4 -10 8 -15 31 -15 67 0 37 -3 52 -11 47 -18 -11 -29
17 -29 79 0 40 -3 56 -11 51 -16 -10 -29 16 -29 60 0 22 -3 36 -7 33 -15 -16
-33 18 -33 63 0 39 -4 49 -20 53 -16 4 -20 14 -20 50 0 37 -3 45 -17 43 -14
-1 -19 8 -21 39 -2 26 -12 47 -29 62 -18 18 -23 30 -19 48 5 18 1 27 -13 34
-12 7 -22 27 -26 52 -4 22 -9 38 -13 35 -12 -13 -32 19 -32 50 0 22 -5 34 -14
34 -16 0 -26 21 -26 57 0 15 -3 23 -7 20 -13 -13 -33 16 -33 48 0 24 -5 34
-20 38 -14 4 -20 14 -20 34 0 17 -8 33 -20 41 -11 7 -20 23 -20 36 0 15 -7 26
-20 29 -13 3 -20 14 -20 31 0 15 -8 30 -20 36 -11 6 -20 19 -20 29 0 10 -11
30 -25 45 -14 15 -25 36 -25 47 0 10 -6 19 -14 19 -8 0 -17 12 -21 27 -3 15
-15 33 -26 41 -10 7 -19 20 -19 28 0 8 -9 23 -20 34 -11 11 -20 28 -20 39 0
10 -9 21 -20 24 -12 3 -20 14 -20 26 0 12 -6 21 -15 21 -8 0 -17 11 -21 24 -3
14 -14 32 -25 42 -10 9 -19 25 -19 34 0 10 -9 20 -20 23 -11 3 -20 12 -20 21
0 14 -13 30 -71 91 -10 12 -19 26 -19 32 0 6 -7 13 -15 17 -8 3 -20 17 -25 31
-5 14 -14 25 -20 25 -5 0 -10 7 -10 15 0 8 -9 19 -20 25 -11 6 -23 22 -26 35
-3 14 -12 25 -20 25 -15 0 -37 34 -27 44 3 3 -3 6 -15 6 -15 0 -22 6 -22 20 0
13 -7 20 -20 20 -15 0 -20 7 -20 25 0 16 -6 25 -16 25 -9 0 -18 9 -21 20 -3
11 -12 20 -19 20 -8 0 -14 5 -14 10 0 10 -115 137 -159 175 -12 11 -33 31 -45
44 -76 83 -216 215 -239 224 -9 3 -17 13 -17 22 0 8 -7 15 -16 15 -9 0 -18 9
-21 20 -3 13 -14 20 -29 20 -17 0 -24 6 -24 20 0 13 -7 20 -20 20 -11 0 -20 7
-20 15 0 9 -11 20 -25 25 -14 5 -25 16 -25 25 0 8 -6 15 -14 15 -13 0 -40 19
-86 62 -10 9 -27 19 -39 23 -12 3 -21 13 -21 21 0 8 -6 14 -14 14 -8 0 -21 8
-28 18 -7 11 -23 24 -35 31 -13 6 -23 18 -23 26 0 10 -10 15 -30 15 -23 0 -30
4 -30 20 0 15 -7 20 -24 20 -16 0 -27 7 -31 20 -4 13 -15 20 -32 20 -16 0 -27
7 -30 20 -3 11 -14 20 -24 20 -10 0 -24 8 -31 18 -7 10 -25 22 -40 26 -16 3
-28 13 -28 21 0 8 -9 15 -20 15 -11 0 -29 9 -40 20 -12 12 -32 25 -45 30 -14
5 -25 17 -25 25 0 9 -4 14 -9 11 -17 -11 -63 13 -57 29 4 11 -2 15 -23 15 -29
0 -57 21 -44 33 3 4 -11 7 -31 7 -29 0 -39 4 -43 20 -3 13 -14 20 -28 20 -24
0 -49 22 -38 33 3 4 -11 7 -31 7 -29 0 -39 4 -43 20 -4 13 -14 20 -30 20 -31
0 -65 18 -58 31 4 5 -5 9 -19 9 -35 0 -56 10 -56 26 0 9 -11 14 -29 14 -39 0
-61 9 -61 26 0 8 -10 14 -25 14 -14 0 -36 11 -48 24 -14 14 -34 23 -54 24 -40
1 -56 10 -49 28 4 11 -5 14 -40 14 -37 0 -47 4 -51 19 -4 16 -15 21 -52 23
-37 2 -46 7 -45 21 2 14 -7 17 -47 17 -27 0 -49 -2 -49 -5 0 -9 107 -55 127
-55 11 0 26 -7 33 -15 7 -8 18 -15 25 -15 8 0 27 -7 44 -15 17 -8 45 -22 62
-30 17 -8 36 -15 44 -15 7 0 18 -7 25 -15 7 -8 21 -15 31 -15 9 0 24 -7 33
-15 8 -8 19 -15 25 -15 14 0 95 -42 99 -52 2 -4 9 -8 15 -8 7 0 37 -13 67 -30
30 -16 78 -40 105 -55 55 -28 70 -37 133 -77 24 -16 50 -28 58 -28 7 0 14 -4
14 -8 0 -5 10 -14 23 -21 12 -6 34 -19 49 -29 14 -9 48 -30 75 -46 26 -16 50
-32 53 -36 3 -4 14 -10 25 -14 11 -3 31 -16 45 -29 14 -12 43 -34 65 -47 22
-13 45 -29 50 -36 6 -6 36 -28 68 -49 31 -20 57 -41 57 -46 0 -5 6 -9 13 -9
10 0 41 -23 97 -72 8 -7 42 -34 75 -59 33 -26 71 -57 85 -69 14 -12 45 -38 69
-58 132 -109 499 -469 590 -578 58 -70 71 -84 141 -164 27 -31 59 -71 73 -90
13 -19 38 -51 55 -70 18 -19 32 -40 32 -47 0 -6 6 -16 13 -20 12 -8 37 -38 67
-83 8 -12 35 -51 60 -85 50 -70 56 -78 105 -153 19 -30 35 -56 35 -59 0 -3 12
-22 28 -42 30 -40 47 -67 62 -96 6 -11 19 -33 30 -50 11 -16 25 -41 30 -55 6
-13 14 -27 18 -30 9 -7 48 -79 119 -220 32 -63 61 -116 65 -118 4 -2 12 -19
18 -38 6 -19 16 -34 21 -34 5 0 9 -13 9 -29 0 -16 7 -34 15 -41 8 -7 15 -20
15 -29 0 -9 7 -25 15 -35 8 -11 15 -27 15 -37 0 -9 7 -22 15 -29 8 -7 15 -23
15 -35 0 -12 7 -28 15 -35 8 -7 15 -22 15 -34 0 -12 7 -31 15 -42 8 -10 15
-27 15 -36 0 -9 6 -29 14 -45 32 -65 46 -100 52 -128 4 -16 10 -34 14 -40 4
-5 11 -26 15 -45 4 -19 10 -39 14 -45 4 -5 17 -44 30 -85 13 -41 30 -87 37
-102 8 -14 14 -37 14 -51 0 -13 7 -41 15 -60 8 -20 15 -47 15 -61 0 -13 7 -37
15 -52 8 -16 15 -43 15 -60 0 -18 7 -45 15 -60 8 -16 15 -43 15 -60 0 -17 7
-51 15 -74 8 -23 15 -59 15 -80 0 -21 7 -54 15 -73 8 -20 15 -59 15 -87 0 -28
5 -61 12 -73 12 -22 24 -133 33 -292 7 -118 -11 -62 -25 79 -6 63 -15 130 -21
148 -5 18 -9 48 -9 67 0 19 -6 62 -14 95 -8 34 -24 113 -36 176 -12 63 -25
126 -30 140 -4 14 -16 59 -25 100 -9 41 -22 95 -30 120 -7 25 -23 79 -35 120
-47 158 -132 404 -180 520 -12 30 -31 78 -42 105 -11 28 -31 75 -45 105 -14
30 -37 82 -51 115 -97 215 -226 449 -430 775 -88 142 -387 544 -460 618 -9 10
-36 40 -60 67 -162 189 -415 439 -648 640 -106 92 -315 256 -414 325 -44 30
-96 67 -117 81 -75 52 -210 137 -348 218 -77 45 -147 86 -155 91 -29 17 -418
210 -424 210 -3 0 -34 13 -69 29 -114 53 -383 159 -462 181 -16 5 -61 19 -100
33 -324 114 -809 219 -1205 261 -439 47 -738 55 -1075 29z m900 -163 c299 -27
562 -66 750 -110 22 -5 81 -19 130 -30 175 -39 534 -146 552 -164 4 -3 14 -6
24 -6 10 0 33 -6 51 -14 18 -8 60 -25 93 -37 33 -12 69 -25 80 -30 11 -4 45
-18 75 -30 53 -21 83 -33 187 -80 112 -50 384 -186 448 -224 39 -22 77 -44 85
-48 33 -15 127 -71 194 -114 39 -26 96 -62 126 -82 136 -87 439 -313 530 -394
14 -13 54 -47 90 -77 157 -133 430 -404 570 -567 52 -59 101 -115 109 -124 24
-25 180 -224 233 -298 92 -128 295 -437 333 -506 21 -38 48 -86 60 -105 29
-46 182 -346 219 -430 16 -36 42 -93 57 -128 16 -35 29 -66 29 -69 0 -3 7 -19
14 -36 33 -72 88 -222 144 -392 58 -178 74 -231 106 -352 41 -161 46 -181 87
-383 86 -434 132 -1106 99 -1460 -5 -58 -14 -159 -20 -225 -16 -183 -50 -425
-84 -585 -29 -141 -43 -205 -55 -250 -7 -25 -20 -72 -28 -105 -31 -120 -97
-329 -146 -465 -88 -242 -261 -624 -360 -795 -16 -27 -45 -79 -65 -115 -35
-64 -154 -257 -195 -315 -12 -16 -41 -58 -64 -93 -79 -115 -116 -167 -123
-172 -3 -3 -34 -42 -68 -86 -154 -205 -264 -328 -510 -572 -169 -167 -321
-304 -472 -422 -31 -25 -76 -61 -100 -80 -94 -77 -440 -312 -540 -367 -19 -10
-54 -31 -78 -46 -86 -56 -406 -220 -541 -278 -52 -22 -101 -44 -110 -48 -151
-73 -497 -197 -726 -260 -60 -17 -124 -35 -141 -41 -16 -5 -50 -14 -75 -19
-24 -5 -96 -21 -159 -35 -313 -70 -413 -81 -599 -61 -71 7 -148 19 -172 25
-24 6 -71 19 -104 27 -224 58 -465 179 -465 232 0 24 70 72 160 111 123 52
148 58 300 69 80 5 177 15 215 20 39 6 104 15 145 21 104 14 241 37 330 55 41
9 95 20 120 25 45 9 301 74 330 83 8 3 69 22 135 42 113 35 224 74 375 131 63
24 88 34 160 66 19 8 60 26 90 39 118 51 469 232 555 288 58 37 78 49 95 57
14 7 337 225 399 270 254 183 626 530 866 808 90 104 210 255 280 353 106 147
297 446 328 513 4 8 16 30 27 48 25 41 119 227 153 302 14 30 41 90 61 133 20
42 36 83 36 90 0 7 4 17 9 23 10 11 99 256 139 384 88 279 148 548 187 835 67
495 67 910 1 1440 -17 130 -38 260 -56 340 -58 265 -77 343 -130 520 -12 39
-25 84 -30 100 -23 82 -131 371 -174 470 -8 17 -26 59 -42 95 -35 80 -189 384
-215 425 -10 17 -23 39 -28 50 -10 23 -111 191 -140 233 -10 15 -47 70 -81
122 -312 469 -736 921 -1211 1290 -255 199 -590 409 -884 556 -148 73 -197 96
-330 154 -27 11 -59 25 -70 30 -75 34 -279 106 -512 181 -61 19 -240 65 -388
99 -49 11 -101 23 -115 26 -92 21 -443 71 -600 84 -204 18 -657 24 -825 11
-450 -36 -602 -60 -1015 -158 -61 -14 -86 -21 -215 -58 -605 -175 -1219 -481
-1730 -864 -268 -200 -401 -315 -620 -535 -240 -241 -524 -584 -676 -816 -20
-30 -54 -82 -76 -115 -107 -162 -300 -518 -372 -685 -13 -30 -34 -77 -47 -104
-13 -28 -24 -55 -24 -60 0 -6 -6 -22 -13 -36 -8 -14 -18 -39 -25 -55 -6 -17
-20 -55 -32 -85 -32 -84 -115 -334 -145 -440 -45 -158 -51 -185 -101 -425
-130 -623 -142 -1367 -30 -1990 35 -196 107 -500 146 -618 6 -18 26 -79 45
-137 105 -323 273 -704 418 -950 28 -47 56 -94 62 -105 9 -17 37 -63 135 -220
238 -380 732 -926 1105 -1220 28 -22 52 -42 55 -45 7 -8 153 -118 220 -166
142 -100 342 -228 405 -260 148 -73 358 -100 695 -90 291 9 436 28 585 77 120
39 144 46 185 54 19 3 53 10 75 15 22 5 92 19 155 30 208 37 266 48 475 95
240 54 460 87 670 101 111 8 292 -22 425 -71 300 -110 309 -112 327 -73 15 35
83 49 253 55 146 5 173 3 310 -26 44 -10 137 -55 170 -84 65 -57 75 -120 27
-166 -45 -41 -355 -140 -552 -176 -180 -33 -343 -98 -500 -200 -66 -43 -150
-97 -187 -120 -30 -19 -162 -83 -203 -98 -100 -39 -204 -62 -510 -117 -112
-19 -137 -29 -133 -52 4 -27 26 -33 197 -53 169 -19 302 -54 426 -110 138 -63
422 -175 442 -175 7 0 32 -7 55 -14 104 -36 429 -57 553 -37 91 15 100 -11 28
-81 -73 -72 -117 -88 -245 -88 -131 0 -295 29 -563 101 -105 28 -156 41 -282
74 -227 58 -382 61 -598 15 -152 -33 -296 -41 -376 -20 -159 40 -347 132 -594
290 -167 106 -218 130 -279 130 -104 0 -86 -35 55 -106 106 -53 138 -84 86
-84 -25 0 -319 91 -374 116 -17 8 -36 14 -42 14 -6 0 -25 6 -43 14 -18 8 -69
29 -113 46 -44 18 -92 38 -107 46 -14 8 -31 14 -37 14 -21 0 -356 161 -486
233 -49 28 -110 61 -135 75 -232 124 -633 406 -905 635 -158 134 -484 456
-620 614 -55 63 -105 120 -110 127 -6 6 -42 52 -80 101 -38 50 -73 95 -78 100
-106 137 -239 336 -353 530 -52 88 -99 167 -104 175 -16 26 -218 433 -235 475
-85 206 -111 272 -137 345 -67 193 -81 239 -152 485 -22 74 -59 234 -82 355
-46 234 -68 392 -84 585 -6 66 -15 172 -20 237 -35 412 25 1142 134 1608 8 36
21 94 29 130 45 203 179 615 268 825 4 11 20 48 34 83 98 240 292 612 430 827
139 215 171 263 199 301 17 23 38 52 46 64 8 13 29 40 45 60 17 21 57 73 90
116 286 373 694 770 1145 1113 128 97 413 285 545 358 50 28 113 64 141 80 54
33 417 213 427 213 4 0 39 15 79 34 93 43 278 113 513 194 68 23 230 72 320
95 33 8 80 21 105 28 227 60 578 117 885 144 99 8 187 17 195 19 8 2 161 4
340 5 253 1 374 -3 545 -19z m-234 -550 c276 -15 456 -36 724 -86 131 -25 320
-69 435 -102 47 -13 102 -28 123 -33 35 -9 220 -69 269 -88 13 -5 43 -17 68
-26 25 -10 54 -21 65 -26 11 -5 50 -20 87 -34 38 -14 76 -29 85 -33 10 -5 34
-16 53 -24 111 -50 367 -178 436 -219 45 -27 84 -49 88 -49 6 0 111 -63 194
-116 28 -19 78 -51 110 -71 142 -92 415 -303 567 -438 393 -348 669 -669 978
-1133 48 -74 97 -150 108 -170 11 -21 24 -44 29 -52 142 -242 270 -512 384
-807 20 -51 36 -97 36 -103 0 -6 4 -18 9 -28 24 -46 111 -337 154 -517 95
-397 136 -725 144 -1145 8 -421 -12 -674 -83 -1060 -35 -190 -72 -334 -146
-575 -190 -613 -511 -1200 -943 -1725 -38 -47 -74 -90 -80 -97 -44 -54 -349
-365 -424 -433 -397 -359 -775 -616 -1273 -866 -70 -35 -129 -64 -132 -64 -2
0 -37 -15 -78 -33 -40 -19 -93 -42 -118 -52 -25 -9 -54 -21 -65 -26 -78 -32
-120 -48 -280 -101 -198 -66 -264 -85 -460 -134 -220 -54 -443 -94 -665 -119
-69 -7 -130 -15 -135 -17 -10 -3 -15 4 -15 22 0 11 119 79 170 98 43 15 122
33 300 67 74 14 151 30 170 35 19 5 67 17 105 26 39 9 88 22 110 29 22 7 67
20 100 30 70 21 257 82 288 95 12 5 63 24 112 44 189 72 400 171 610 286 239
130 564 350 755 509 420 352 786 753 1067 1171 78 115 141 213 159 246 6 12
23 39 38 60 14 21 26 42 26 46 0 4 15 31 34 60 42 67 192 376 246 508 12 30
28 69 35 85 23 51 86 227 100 275 7 25 24 79 38 120 152 447 239 1090 223
1654 -8 283 -17 382 -65 706 -14 91 -64 320 -93 425 -11 39 -23 84 -27 100
-18 66 -65 215 -98 305 -122 338 -250 612 -412 883 -42 70 -94 158 -116 195
-100 170 -314 450 -470 617 -55 59 -103 113 -107 120 -7 11 -88 86 -313 289
-38 35 -126 109 -195 165 -69 55 -130 105 -135 109 -6 5 -35 26 -65 47 -30 21
-82 57 -115 80 -256 181 -719 415 -1100 557 -188 69 -510 166 -665 199 -88 19
-196 40 -250 49 -30 4 -95 15 -145 23 -261 43 -483 59 -795 59 -239 -1 -310
-5 -540 -28 -241 -24 -427 -57 -685 -121 -295 -73 -438 -118 -770 -246 -155
-60 -530 -248 -740 -372 -373 -219 -822 -589 -1129 -930 -50 -55 -93 -102 -96
-105 -36 -35 -206 -254 -329 -425 -73 -103 -239 -382 -329 -555 -57 -111 -175
-369 -198 -433 -7 -20 -20 -52 -28 -70 -17 -35 -37 -91 -67 -182 -11 -33 -24
-73 -30 -90 -49 -137 -144 -501 -178 -685 -93 -488 -107 -1028 -40 -1560 59
-478 219 -1033 421 -1460 55 -117 145 -294 175 -345 16 -27 32 -57 36 -65 4
-8 15 -27 25 -42 9 -14 30 -48 46 -75 126 -208 293 -436 491 -670 95 -113 428
-438 565 -553 127 -106 357 -277 485 -361 212 -139 533 -314 723 -394 50 -22
92 -43 92 -47 0 -35 -456 -26 -623 12 -98 23 -124 33 -182 69 -64 41 -79 50
-95 58 -35 17 -264 174 -370 253 -63 48 -176 138 -250 200 -140 117 -523 494
-600 591 -25 30 -81 100 -125 155 -83 103 -163 211 -243 327 -177 258 -401
672 -502 927 -11 30 -28 68 -36 83 -8 16 -14 33 -14 39 0 5 -6 24 -14 41 -33
73 -143 417 -177 557 -35 141 -81 370 -103 515 -43 276 -50 384 -50 770 -1
410 9 553 61 855 14 80 29 170 33 200 5 30 13 73 19 95 6 22 20 81 32 130 34
145 131 472 150 507 5 10 9 22 9 28 0 16 107 284 162 405 105 232 213 434 347
650 81 131 233 352 300 435 20 25 39 49 43 55 16 21 113 140 119 145 3 3 53
59 111 125 237 268 605 599 879 787 41 28 90 63 109 77 19 14 43 31 52 36 10
6 64 40 120 76 57 36 133 82 170 102 37 20 85 47 105 60 76 47 429 214 563
267 54 21 67 26 125 50 109 45 496 164 635 195 41 9 100 22 130 30 30 7 98 20
150 29 52 9 118 21 145 27 148 30 571 65 826 68 74 0 218 -4 320 -9z m-21
-451 c41 -5 135 -13 209 -18 130 -9 191 -23 191 -43 0 -6 -15 -8 -37 -4 -113
20 -262 27 -558 28 -326 2 -410 -3 -670 -41 -38 -6 -115 -15 -170 -21 -56 -5
-126 -19 -158 -30 -31 -11 -65 -20 -76 -20 -27 0 -272 -58 -296 -70 -11 -6
-63 -21 -115 -35 -52 -13 -120 -34 -150 -45 -30 -12 -104 -39 -163 -61 -60
-21 -152 -59 -205 -85 -54 -25 -106 -49 -117 -54 -86 -33 -382 -191 -480 -255
-44 -29 -107 -69 -140 -89 -94 -58 -341 -242 -470 -350 -167 -141 -397 -364
-505 -491 -24 -27 -46 -52 -49 -55 -9 -7 -78 -93 -131 -163 -25 -34 -57 -77
-72 -96 -184 -243 -407 -625 -518 -886 -18 -44 -37 -84 -41 -90 -23 -32 -139
-336 -175 -457 -8 -27 -21 -72 -30 -100 -17 -59 -35 -124 -58 -213 -26 -102
-94 -445 -105 -535 -80 -634 -40 -1248 119 -1830 5 -19 15 -55 21 -80 13 -54
73 -235 101 -305 11 -27 27 -68 35 -90 8 -22 25 -62 38 -90 12 -27 26 -61 30
-75 4 -14 50 -112 101 -219 52 -107 94 -195 94 -197 0 -5 75 -129 116 -191 19
-28 34 -54 34 -57 0 -10 101 -160 124 -186 13 -14 47 -61 77 -105 72 -106 92
-132 244 -309 186 -217 492 -514 650 -631 22 -16 51 -40 65 -52 14 -13 28 -23
32 -23 4 0 31 -19 60 -43 183 -147 597 -386 898 -519 192 -85 307 -130 379
-148 68 -18 36 -34 -78 -38 -121 -5 -146 2 -358 99 -35 16 -65 29 -67 29 -7 0
-142 66 -191 94 -22 12 -83 45 -135 74 -52 29 -133 77 -180 107 -47 30 -105
66 -130 81 -103 62 -352 246 -450 333 -41 36 -93 82 -115 101 -113 100 -237
222 -355 350 -31 33 -129 147 -165 190 -21 25 -56 67 -79 94 -43 51 -47 57
-189 263 -106 154 -175 261 -211 328 -15 28 -35 64 -45 80 -50 84 -187 366
-231 475 -24 60 -31 78 -53 130 -8 19 -20 49 -25 65 -6 17 -25 68 -42 115 -63
169 -128 384 -138 460 -2 19 -8 40 -12 45 -8 11 -25 101 -23 124 1 8 -3 26 -9
40 -16 40 -29 101 -33 156 -2 28 -9 79 -14 115 -6 36 -15 117 -20 180 -5 63
-14 137 -19 164 -6 28 -6 61 -1 78 4 17 6 100 4 186 -9 320 37 731 120 1072
53 218 141 516 186 626 6 16 15 38 20 49 4 11 18 45 30 75 20 52 43 103 91
210 156 343 450 812 664 1060 12 14 52 61 90 105 108 127 357 376 499 499 190
164 338 276 550 415 226 149 529 310 770 411 55 23 114 47 130 55 39 17 373
128 450 149 33 9 75 22 94 28 19 5 61 16 95 24 34 7 93 21 131 29 39 9 95 20
125 25 30 4 82 13 115 18 143 25 281 42 430 52 88 6 171 12 185 14 61 7 392 4
460 -5z m-38 -101 c13 -25 16 -482 3 -608 -7 -72 1 -138 15 -123 5 4 11 85 14
178 3 94 10 203 16 244 17 118 59 295 74 310 19 19 180 6 202 -16 13 -13 15
-38 11 -152 -3 -75 -12 -192 -21 -261 -24 -175 -33 -290 -24 -303 4 -7 8 -10
9 -7 5 18 30 214 39 305 6 62 24 154 41 210 16 55 36 124 45 153 12 42 19 52
37 52 41 -1 188 -27 197 -36 9 -9 -2 -126 -20 -214 -5 -25 -12 -83 -15 -130
-4 -47 -11 -91 -17 -97 -6 -7 -14 -39 -18 -70 -5 -32 -15 -103 -24 -158 -8
-54 -13 -102 -10 -104 9 -10 23 24 29 69 3 25 12 68 20 95 7 28 20 95 30 150
18 109 39 198 62 260 29 77 77 174 88 179 11 4 42 -1 122 -19 53 -12 56 -22
38 -131 -8 -55 -20 -119 -26 -144 -6 -25 -14 -67 -19 -95 -4 -27 -12 -63 -18
-80 -12 -33 -28 -98 -42 -163 -5 -24 -16 -63 -25 -88 -8 -25 -15 -51 -15 -59
0 -27 29 -16 35 13 4 15 12 50 19 77 37 139 59 225 70 275 26 112 128 336 157
345 11 4 41 0 67 -8 26 -8 69 -21 95 -28 27 -8 53 -19 58 -26 14 -16 -19 -146
-86 -338 -31 -88 -61 -176 -66 -195 -6 -19 -17 -49 -25 -67 -8 -17 -14 -42
-14 -56 0 -15 -9 -31 -25 -41 -22 -15 -121 -16 -1077 -14 l-1053 3 -7 40 c-21
120 -30 160 -37 170 -5 5 -11 30 -13 55 -3 25 -10 59 -16 75 -26 74 -34 131
-44 298 -7 112 -7 182 -1 188 5 5 51 17 102 26 79 14 94 15 105 2 28 -29 71
-192 97 -364 5 -38 15 -90 21 -115 5 -25 13 -85 17 -135 8 -97 25 -155 41
-139 9 9 0 74 -30 214 -5 25 -12 77 -15 115 -4 39 -11 85 -17 104 -13 43 -14
329 0 343 15 15 80 27 144 28 63 0 70 -6 82 -72 4 -20 13 -50 21 -65 8 -15 15
-55 16 -88 0 -33 5 -87 10 -120 5 -33 13 -125 19 -205 13 -180 18 -212 33
-207 7 2 11 13 10 23 -1 10 -7 89 -12 174 -6 85 -15 178 -21 207 -13 60 1 318
19 352 11 19 20 21 116 21 98 0 105 -1 120 -23 27 -41 34 -124 38 -445 3 -210
9 -318 16 -325 6 -6 11 -7 11 -1 3 599 11 754 42 791 7 9 37 13 89 13 71 0 79
-2 91 -22z m-1264 -156 c24 -42 44 -108 64 -207 5 -27 16 -63 24 -78 8 -16 14
-42 14 -58 0 -27 11 -75 45 -204 8 -27 16 -71 20 -96 3 -26 12 -55 20 -65 9
-13 10 -24 4 -36 -9 -16 -25 -18 -137 -18 -145 0 -168 10 -174 69 -2 19 -9 36
-15 39 -16 5 -17 -32 -2 -59 21 -40 -3 -49 -130 -49 -104 0 -120 2 -139 20
-12 12 -22 27 -22 36 0 8 -4 22 -10 32 -18 33 -50 111 -50 124 0 7 -12 31 -25
53 -24 38 -25 39 -25 13 0 -15 14 -56 30 -91 17 -36 30 -69 30 -75 0 -5 7 -23
16 -40 30 -61 22 -67 -106 -70 -137 -3 -164 5 -181 57 -6 20 -18 47 -25 61
-54 102 -126 368 -108 397 11 18 164 81 182 75 6 -2 41 -64 77 -137 36 -74 70
-137 75 -140 12 -8 12 19 0 65 -47 178 -59 234 -50 250 11 20 169 74 191 65
19 -7 74 -90 94 -140 9 -22 22 -53 30 -70 7 -16 21 -50 30 -75 9 -25 23 -60
31 -78 8 -18 14 -42 14 -52 0 -11 9 -37 20 -57 11 -21 20 -48 20 -60 0 -12 5
-25 10 -28 18 -11 6 48 -31 160 -25 73 -41 134 -50 185 -19 114 -32 237 -27
252 4 9 38 25 80 37 40 11 84 25 98 30 44 16 64 8 88 -37z m2784 -113 c109
-40 115 -46 99 -101 -19 -66 -71 -208 -93 -258 -12 -25 -24 -54 -29 -65 -4
-11 -22 -53 -38 -94 -17 -40 -31 -79 -31 -87 0 -31 -43 -43 -163 -45 -74 -1
-123 3 -130 10 -11 11 -3 36 74 256 17 50 38 97 45 106 8 8 14 19 14 23 0 4
24 58 54 119 53 111 89 167 106 167 5 0 46 -14 92 -31z m265 -103 c91 -32 153
-67 153 -87 0 -22 -49 -129 -96 -210 -18 -30 -38 -76 -44 -102 -7 -25 -18 -52
-26 -58 -8 -6 -14 -17 -14 -24 0 -7 -9 -24 -21 -39 l-21 -27 -131 3 -132 3 -3
26 c-2 14 4 31 12 39 9 7 16 18 16 25 0 8 11 35 24 62 13 26 35 73 49 104 30
69 178 299 192 299 1 0 20 -6 42 -14z m-4035 -113 c27 -30 44 -59 103 -168 90
-166 123 -237 118 -251 -4 -11 -32 -14 -140 -14 -128 0 -173 8 -173 31 0 6
-20 61 -44 122 -24 62 -51 135 -59 164 -14 47 -14 53 1 66 19 17 141 76 158
77 5 0 22 -12 36 -27z m4383 -50 c35 -20 66 -42 69 -49 8 -20 -21 -89 -71
-169 -26 -42 -56 -92 -66 -111 -25 -50 -56 -60 -180 -56 -103 3 -107 4 -106
25 0 12 13 45 30 72 16 28 33 60 39 72 29 69 177 253 202 253 10 0 48 -17 83
-37z m-4649 -135 c28 -29 69 -88 92 -130 23 -42 46 -79 51 -83 6 -3 8 -12 4
-20 -4 -12 -32 -15 -147 -15 -135 0 -144 1 -163 23 -26 29 -76 149 -71 173 4
22 133 103 164 104 13 0 41 -21 70 -52z m4884 3 c3 -5 31 -23 63 -41 32 -18
61 -39 64 -47 9 -24 -19 -103 -48 -134 l-27 -30 -164 3 c-141 3 -163 5 -166
19 -2 10 42 63 109 134 100 103 115 116 138 110 14 -4 28 -10 31 -14z m-5180
-171 c75 -75 71 -80 -63 -80 -107 0 -137 7 -137 32 0 8 130 98 142 98 4 0 30
-22 58 -50z m-86 -537 c280 -559 570 -1134 1011 -2008 496 -983 507 -1004 500
-1015 -4 -6 -67 -10 -145 -10 -78 0 -141 -4 -145 -10 -3 -5 -6 -143 -6 -307
l-1 -298 248 -3 c145 -1 252 -6 259 -12 8 -6 12 -34 11 -71 -2 -56 -5 -64 -49
-117 -48 -59 -83 -99 -146 -167 -20 -22 -82 -92 -137 -155 -56 -63 -112 -127
-125 -141 -35 -37 -94 -103 -174 -194 -38 -43 -92 -104 -120 -135 -27 -31 -81
-90 -118 -133 -90 -100 -137 -160 -137 -173 0 -6 -34 -40 -76 -75 -43 -35
-127 -107 -188 -159 -61 -53 -121 -102 -132 -110 -12 -9 -54 -44 -94 -80 -40
-36 -82 -72 -94 -80 -19 -13 -47 -37 -126 -110 -9 -8 -36 -33 -60 -54 -25 -21
-72 -64 -105 -96 -33 -31 -89 -77 -125 -102 -36 -26 -79 -61 -96 -80 -17 -18
-47 -46 -65 -62 -19 -16 -113 -97 -209 -181 -194 -167 -359 -295 -381 -295
-35 0 -174 183 -160 209 10 18 128 131 238 228 76 67 164 135 256 198 75 51
112 79 186 138 33 26 62 47 66 47 5 0 158 114 228 170 7 5 28 22 47 38 19 15
61 45 92 66 31 21 59 45 62 52 3 8 11 14 18 14 18 1 58 36 58 50 0 13 -39 -8
-70 -37 -29 -27 -230 -170 -279 -198 -9 -5 -105 -75 -212 -154 -401 -298 -461
-341 -638 -461 -57 -38 -110 -70 -117 -70 -6 0 -34 30 -61 68 -127 173 -126
160 -17 248 48 38 112 88 143 112 31 24 67 53 81 66 14 12 47 36 74 52 27 16
60 37 75 46 14 10 33 21 41 25 8 4 34 20 56 35 23 15 45 28 48 28 4 0 19 9 34
19 63 44 201 131 246 155 27 14 63 36 80 49 17 12 49 31 70 42 22 11 79 46
128 78 48 31 91 57 94 57 4 0 31 16 60 35 29 19 57 35 63 35 6 0 11 4 11 8 0
5 17 16 38 25 20 9 61 32 90 52 30 19 56 35 59 35 3 0 22 14 43 30 21 17 42
30 47 30 9 0 192 116 228 145 10 8 25 15 32 15 7 0 13 5 13 10 0 6 6 10 13 10
6 0 35 15 62 32 28 18 63 40 79 49 32 17 46 39 24 39 -7 0 -44 -20 -81 -45
-38 -25 -72 -45 -77 -45 -4 0 -10 -6 -13 -13 -2 -7 -24 -22 -48 -35 -24 -13
-91 -52 -149 -88 -58 -36 -115 -69 -128 -75 -12 -5 -60 -33 -105 -62 -72 -48
-118 -76 -192 -120 -11 -6 -38 -23 -60 -37 -70 -44 -79 -49 -110 -65 -56 -29
-195 -115 -267 -166 -15 -10 -30 -19 -33 -19 -5 0 -193 -113 -253 -152 -15
-10 -36 -22 -47 -28 -11 -6 -33 -19 -50 -30 -16 -11 -39 -24 -50 -30 -66 -34
-151 -85 -263 -155 -70 -44 -131 -82 -137 -84 -5 -2 -29 -12 -52 -22 -23 -11
-49 -19 -58 -19 -24 0 -125 167 -125 208 0 22 179 161 290 227 36 21 79 49 95
61 17 12 65 40 107 63 181 97 205 110 248 131 58 28 67 32 115 58 22 11 66 33
98 47 31 15 57 31 57 36 0 5 9 9 19 9 11 0 22 4 26 9 3 5 18 12 35 16 16 3 46
19 67 34 21 15 49 31 63 34 39 10 136 70 122 75 -7 2 -28 -3 -46 -12 -19 -9
-37 -16 -40 -16 -3 0 -25 -13 -48 -30 -22 -16 -48 -30 -56 -30 -8 0 -33 -13
-56 -28 -22 -15 -65 -38 -93 -50 -29 -12 -74 -34 -99 -47 -26 -14 -54 -25 -63
-25 -10 0 -22 -5 -28 -11 -13 -13 -40 -28 -103 -59 -55 -27 -160 -79 -433
-217 -182 -92 -246 -119 -332 -139 -15 -4 -24 3 -37 28 -37 72 -59 130 -56
146 5 27 128 102 328 198 156 75 177 85 310 139 25 10 73 31 108 47 34 15 66
28 72 28 8 0 159 68 169 77 2 1 1 6 -2 9 -8 8 -121 -29 -203 -67 -34 -16 -67
-29 -73 -29 -6 0 -19 -4 -29 -10 -35 -19 -149 -69 -242 -105 -52 -20 -113 -45
-136 -55 -22 -10 -69 -26 -104 -35 -34 -9 -103 -30 -152 -46 -85 -29 -91 -29
-109 -13 -10 9 -23 31 -28 48 -5 17 -20 57 -32 89 -21 56 -22 58 -3 78 19 22
211 118 276 138 20 7 62 25 94 41 32 17 66 30 77 30 10 0 31 6 45 14 15 7 59
23 97 35 39 12 86 28 105 35 19 8 53 19 75 26 22 7 54 18 70 26 17 7 49 18 72
24 23 6 45 15 48 20 3 6 15 10 26 10 22 0 149 39 149 46 0 11 -71 2 -84 -11
-8 -8 -25 -15 -38 -15 -13 0 -32 -6 -43 -14 -11 -7 -38 -16 -60 -19 -22 -2
-85 -21 -140 -40 -55 -19 -161 -54 -235 -77 -74 -24 -200 -64 -280 -90 -149
-49 -276 -77 -303 -67 -18 7 -70 170 -63 195 3 9 14 22 25 29 56 35 404 158
561 199 36 9 107 29 158 45 51 16 103 29 115 29 12 0 65 11 117 25 52 14 113
30 135 36 22 5 47 12 55 16 15 6 71 20 175 42 28 6 70 18 95 26 25 8 73 20
108 27 74 14 91 23 77 37 -10 10 -49 4 -110 -18 -16 -6 -66 -18 -110 -27 -44
-10 -86 -22 -94 -28 -7 -5 -36 -13 -65 -17 -28 -4 -64 -11 -81 -17 -16 -6 -66
-19 -110 -28 -133 -28 -229 -54 -239 -64 -6 -6 -27 -10 -47 -10 -21 0 -50 -5
-66 -11 -15 -6 -48 -14 -73 -19 -25 -4 -58 -13 -75 -18 -16 -6 -64 -18 -105
-27 -41 -8 -97 -22 -125 -30 -54 -16 -147 -31 -265 -45 -66 -7 -77 -6 -93 10
-19 18 -50 160 -41 185 6 14 222 89 304 106 25 5 77 18 115 30 39 11 95 24
125 29 50 9 134 26 250 52 25 6 77 14 115 19 39 4 115 18 170 29 112 23 141
28 205 36 32 4 40 8 29 15 -26 14 -362 -37 -503 -77 -27 -8 -73 -14 -103 -14
-29 0 -72 -4 -95 -10 -113 -25 -424 -72 -564 -85 -44 -4 -64 -2 -72 7 -6 8
-16 53 -22 101 -9 69 -9 91 0 102 16 20 91 40 215 59 55 8 132 20 170 26 39 6
133 17 210 23 77 7 145 16 151 20 6 3 73 11 150 17 76 6 204 17 284 26 80 8
206 21 280 29 74 7 137 14 139 14 3 1 1 5 -5 10 -10 11 -200 0 -339 -18 -138
-19 -255 -31 -420 -46 -88 -8 -212 -19 -275 -25 -184 -16 -519 -18 -556 -2
-30 13 -32 17 -36 80 -3 37 -3 72 -1 77 2 6 40 21 86 33 63 17 108 22 194 22
61 0 146 5 189 11 93 13 134 15 558 28 182 6 354 15 385 21 30 5 129 10 220
10 91 0 173 4 181 10 31 19 -24 22 -238 11 -119 -7 -329 -16 -467 -21 -137 -5
-305 -14 -372 -19 -77 -6 -134 -6 -155 0 -18 5 -123 9 -233 9 -198 0 -317 11
-342 32 -9 7 -13 39 -13 99 0 101 8 115 73 124 129 17 442 24 723 17 170 -5
327 -9 349 -9 80 1 663 -14 775 -20 211 -10 225 -9 225 7 0 12 -18 15 -90 17
-49 2 -151 5 -225 7 -74 3 -319 7 -545 10 -622 7 -1253 54 -1274 95 -10 19 2
168 15 181 15 15 156 33 219 27 133 -12 524 -47 580 -52 67 -5 113 10 54 19
-57 8 -228 26 -349 36 -63 5 -124 12 -135 15 -11 4 -51 13 -90 20 -93 19 -160
39 -218 64 l-49 21 5 48 c7 75 29 176 41 191 13 16 137 9 276 -15 82 -14 140
-12 140 6 0 8 -154 60 -178 60 -17 0 -195 70 -206 81 -12 11 11 142 32 186 9
18 23 35 32 38 19 6 102 -11 275 -56 66 -17 161 -39 210 -50 50 -10 120 -26
156 -34 78 -17 113 -19 104 -5 -3 6 -22 10 -42 10 -19 0 -49 6 -66 14 -18 8
-106 40 -197 71 -91 30 -174 59 -185 64 -11 5 -43 17 -72 26 -61 19 -163 73
-168 89 -3 6 17 74 43 151 l47 140 38 3 c22 2 53 -2 70 -8 18 -6 76 -24 129
-40 53 -15 121 -39 150 -53 29 -14 73 -30 98 -37 105 -27 157 -43 182 -56 14
-8 34 -14 45 -14 10 0 27 -7 37 -15 11 -8 29 -15 41 -15 12 0 25 -4 30 -9 6
-6 46 -21 89 -35 44 -15 84 -30 90 -35 6 -4 22 -11 36 -14 28 -6 105 -33 135
-47 11 -5 49 -19 85 -31 36 -12 74 -28 85 -35 22 -16 65 -19 65 -5 0 9 -103
51 -128 51 -10 0 -26 7 -36 15 -11 8 -30 15 -42 15 -12 0 -37 8 -56 17 -18 9
-45 22 -60 30 -14 7 -33 13 -42 13 -14 0 -33 7 -121 45 -16 7 -55 21 -85 31
-134 42 -220 76 -352 138 -42 20 -80 36 -84 36 -4 0 -26 9 -48 19 -97 46 -173
79 -195 86 -36 11 -101 75 -100 99 0 39 63 151 86 154 12 2 63 -11 113 -27 50
-17 96 -31 101 -31 6 0 34 -11 62 -24 29 -13 93 -41 142 -61 126 -52 152 -63
221 -96 33 -16 64 -29 68 -29 5 0 111 -47 157 -70 9 -5 61 -27 115 -50 54 -23
148 -65 208 -92 60 -27 145 -63 189 -79 70 -26 120 -48 273 -120 23 -10 49
-19 58 -19 21 0 21 19 -1 26 -10 3 -49 19 -88 36 -38 17 -86 37 -105 45 -19 8
-42 19 -50 24 -32 18 -119 57 -142 64 -12 4 -61 25 -108 47 -47 22 -101 47
-120 55 -19 9 -47 22 -62 30 -14 7 -32 13 -39 13 -12 0 -52 18 -237 106 -51
24 -97 44 -102 44 -5 0 -45 16 -87 36 -188 86 -409 212 -487 278 l-39 32 36
75 c44 88 59 109 80 109 39 0 271 -108 572 -265 66 -34 183 -95 260 -134 77
-40 181 -94 230 -122 50 -27 104 -56 122 -64 17 -8 34 -19 38 -25 9 -14 45
-12 45 3 0 6 -22 22 -48 35 -26 12 -60 31 -77 42 -16 11 -41 24 -55 30 -79 33
-200 92 -275 136 -33 19 -71 39 -85 44 -44 18 -74 34 -99 52 -13 10 -32 18
-42 18 -11 0 -19 4 -19 9 0 6 -36 28 -80 49 -44 22 -99 54 -122 71 -24 17 -91
63 -149 101 -59 38 -120 85 -138 105 l-31 36 28 53 c50 93 104 174 118 180 8
3 22 1 32 -4 9 -5 52 -26 95 -45 43 -19 96 -48 117 -65 21 -16 42 -30 47 -30
6 0 28 -12 49 -28 40 -28 88 -52 104 -52 17 0 -35 47 -115 105 -128 91 -245
209 -245 246 0 21 68 122 93 138 31 20 95 -8 217 -93 63 -44 124 -88 134 -98
11 -10 38 -30 60 -45 23 -15 43 -31 46 -34 3 -3 73 -56 155 -117 83 -61 168
-126 191 -144 23 -18 51 -40 64 -48 12 -8 49 -35 81 -59 33 -24 62 -41 65 -39
15 15 -16 42 -234 209 -26 19 -78 57 -117 84 -38 26 -72 51 -75 55 -8 10 -121
93 -166 122 -55 35 -324 307 -324 327 0 20 93 136 120 151 32 17 146 -47 243
-137 23 -21 56 -48 74 -59 18 -11 58 -44 90 -74 32 -30 91 -81 130 -113 39
-32 73 -62 75 -66 2 -5 68 -64 148 -132 79 -68 194 -167 255 -219 60 -52 123
-106 139 -120 16 -14 36 -33 45 -42 16 -19 41 -24 41 -9 0 5 -10 15 -22 24
-13 8 -55 46 -94 83 -72 69 -145 135 -239 214 -111 93 -142 121 -195 172 -30
29 -75 69 -99 88 -222 175 -512 473 -493 507 16 28 115 123 129 123 40 0 193
-128 399 -334 342 -343 476 -468 485 -459 10 10 -10 32 -420 436 -213 210
-371 402 -371 450 0 16 134 140 162 150 10 4 31 -6 55 -24 21 -16 52 -39 68
-51 17 -11 47 -42 68 -67 22 -25 78 -89 127 -141 92 -100 144 -159 274 -309
75 -86 101 -107 77 -63 -6 11 -17 27 -23 34 -7 7 -37 43 -67 78 -30 36 -59 70
-65 75 -6 6 -27 30 -46 55 -19 25 -51 63 -71 85 -141 155 -292 388 -276 428 8
22 129 116 149 117 12 0 72 -110 222 -407z m5789 347 c14 -11 28 -20 32 -20
12 0 44 -44 45 -60 0 -29 -119 -180 -308 -389 -37 -40 -89 -102 -117 -137 -27
-35 -72 -89 -99 -119 -27 -31 -46 -58 -42 -62 7 -7 67 56 126 130 19 24 46 52
60 62 14 10 50 49 80 88 84 108 363 347 403 347 23 0 127 -101 127 -123 0 -29
-58 -93 -369 -404 -239 -240 -287 -293 -266 -293 3 0 56 50 118 111 162 161
283 269 356 320 164 113 212 147 228 161 34 31 51 25 98 -32 25 -30 45 -62 45
-70 -1 -18 -92 -124 -168 -195 -108 -100 -219 -202 -302 -275 -77 -67 -123
-111 -271 -255 -25 -25 -50 -45 -55 -45 -13 0 -46 -40 -42 -51 4 -11 91 63
159 133 25 27 48 48 51 48 6 0 38 26 122 100 28 25 76 65 105 90 30 25 66 56
80 69 58 52 251 191 329 236 92 53 84 54 154 -20 62 -66 58 -73 -106 -226
-183 -170 -232 -212 -257 -221 -12 -5 -60 -41 -108 -81 -47 -41 -100 -82 -116
-92 -40 -26 -114 -84 -148 -117 -16 -16 -33 -28 -38 -28 -5 0 -9 -4 -9 -10 0
-15 17 -12 36 8 9 9 34 28 54 42 52 34 333 250 345 265 11 13 143 105 152 105
3 0 45 25 95 56 116 72 200 114 226 114 12 0 27 -10 33 -22 7 -13 32 -47 56
-76 23 -30 43 -60 43 -66 0 -21 -45 -63 -119 -114 -77 -54 -119 -87 -194 -153
-29 -25 -59 -49 -67 -52 -37 -16 -118 -77 -102 -77 16 0 72 31 72 40 0 4 12
13 28 19 15 6 41 19 57 29 46 28 319 152 333 152 7 0 24 7 37 16 30 20 43 12
80 -51 35 -61 33 -87 -12 -121 -64 -49 -125 -89 -188 -124 -172 -96 -334 -204
-311 -208 9 -2 23 1 29 7 7 5 76 41 152 80 156 77 331 146 399 156 l45 7 30
-48 c54 -86 51 -91 -134 -189 -49 -26 -115 -62 -146 -81 -31 -19 -60 -34 -63
-34 -7 0 -188 -88 -245 -119 -14 -8 -32 -20 -39 -28 -7 -7 -21 -13 -31 -13 -9
0 -22 -5 -28 -11 -12 -12 -44 -31 -83 -50 -20 -10 -22 -13 -8 -16 17 -4 152
59 163 77 3 5 15 10 26 10 10 0 27 4 37 9 53 30 292 141 301 141 6 0 25 6 43
14 81 35 268 88 292 82 18 -4 32 -22 50 -62 14 -31 26 -62 26 -69 0 -27 -60
-61 -265 -155 -38 -17 -111 -52 -160 -76 -50 -24 -97 -44 -105 -44 -17 0 -98
-39 -106 -51 -3 -5 -11 -9 -19 -9 -21 0 -175 -73 -175 -83 0 -13 56 2 109 28
25 13 87 40 136 60 50 20 97 43 106 51 8 8 23 14 32 14 15 0 131 34 404 117
45 14 88 23 95 20 19 -7 70 -142 66 -174 -2 -21 -12 -29 -53 -44 -27 -9 -120
-42 -205 -71 -85 -30 -175 -64 -200 -75 -25 -12 -81 -31 -125 -44 -44 -12 -84
-26 -90 -29 -5 -4 -46 -20 -90 -35 -44 -15 -96 -36 -115 -46 l-35 -18 35 -1
c19 0 62 11 95 24 33 14 94 35 135 47 41 13 80 26 86 31 17 12 134 48 158 48
11 0 53 10 91 20 39 11 93 24 120 29 28 5 79 17 115 25 103 25 123 22 143 -19
23 -48 39 -112 41 -159 l1 -38 -95 -35 c-87 -31 -256 -80 -355 -103 -22 -5
-71 -21 -110 -35 -38 -14 -84 -25 -102 -25 -17 0 -55 -8 -85 -19 -29 -10 -84
-26 -123 -36 -38 -9 -74 -21 -80 -26 -13 -13 57 -12 92 2 15 6 46 14 68 19 61
12 169 41 180 49 6 3 37 11 70 17 33 6 103 20 155 31 136 30 212 41 321 49 93
6 96 6 111 -17 15 -24 35 -105 45 -186 6 -48 -7 -59 -85 -73 -97 -17 -169 -31
-227 -44 -95 -23 -206 -44 -260 -51 -27 -4 -54 -10 -60 -13 -10 -7 -121 -27
-205 -37 -25 -3 -92 -16 -149 -28 -92 -19 -100 -22 -70 -28 19 -4 54 -3 79 2
25 6 73 14 107 19 35 5 71 13 80 18 10 5 41 12 68 16 28 3 77 11 110 16 185
30 264 39 395 46 132 7 195 8 234 5 16 -1 22 -24 31 -123 l6 -67 -39 -10 c-88
-24 -226 -45 -532 -82 -566 -67 -652 -80 -633 -92 19 -12 640 49 740 73 63 15
458 13 471 -2 17 -21 37 -235 23 -252 -26 -31 -358 -61 -851 -75 -267 -8 -329
-15 -299 -32 14 -7 316 2 674 22 139 7 218 8 260 1 33 -6 93 -14 133 -17 42
-4 79 -13 87 -22 12 -11 15 -42 15 -128 0 -159 19 -150 -315 -149 -143 1 -312
4 -375 7 -104 4 -451 9 -574 8 -27 -1 -47 -4 -43 -7 3 -4 118 -10 254 -15 722
-25 987 -49 1031 -92 10 -11 11 -33 3 -112 -10 -103 -17 -115 -61 -115 -60 0
-351 21 -410 30 -36 6 -123 12 -193 15 -70 2 -132 7 -138 11 -5 3 -60 10 -122
14 -62 5 -139 12 -172 16 -55 6 -59 5 -45 -10 11 -12 51 -18 160 -26 80 -6
161 -15 180 -19 19 -5 91 -14 160 -21 188 -18 299 -36 481 -76 37 -7 78 -14
92 -14 45 0 49 -18 34 -131 -17 -119 -27 -133 -92 -124 -22 3 -92 10 -155 16
-173 14 -262 25 -290 37 -14 5 -77 17 -140 26 -63 10 -144 23 -180 31 -65 14
-152 29 -265 46 -33 5 -98 16 -144 25 -59 11 -86 13 -94 5 -13 -13 0 -18 63
-24 25 -3 65 -10 90 -16 25 -5 81 -17 125 -25 121 -23 234 -44 295 -56 30 -6
89 -17 130 -25 41 -7 138 -25 215 -39 282 -52 311 -59 353 -83 23 -14 42 -32
42 -42 0 -34 -42 -186 -55 -200 -14 -14 -65 -10 -235 18 -30 5 -87 10 -127 10
-40 1 -82 5 -95 10 -13 5 -68 19 -123 31 -55 12 -111 26 -125 32 -14 5 -45 14
-70 18 -49 10 -236 56 -286 71 -17 5 -42 9 -57 9 -14 0 -38 5 -54 11 -15 6
-59 19 -98 29 -38 11 -97 26 -130 35 -79 21 -116 16 -60 -9 22 -9 58 -21 80
-26 22 -5 75 -18 119 -29 43 -12 88 -21 100 -21 11 0 48 -8 81 -19 101 -32
166 -50 260 -71 50 -12 101 -25 115 -29 36 -12 123 -34 300 -76 85 -20 183
-43 218 -52 79 -20 152 -65 152 -93 0 -33 -40 -147 -56 -161 -17 -14 -147 -5
-244 17 -36 8 -94 22 -130 30 -70 16 -97 24 -290 90 -69 23 -179 59 -245 80
-66 20 -124 41 -129 46 -13 11 -89 10 -81 -1 3 -5 20 -13 38 -16 17 -4 37 -11
42 -15 6 -4 44 -17 85 -30 41 -13 89 -29 107 -36 17 -8 38 -14 46 -14 9 0 18
-4 22 -9 3 -5 20 -13 38 -17 17 -3 45 -12 62 -19 16 -7 55 -20 85 -30 30 -9
71 -23 90 -30 19 -8 98 -34 175 -59 166 -53 243 -86 269 -115 18 -20 18 -22
-14 -110 -18 -50 -39 -96 -46 -102 -20 -16 -90 -5 -199 30 -49 17 -119 39
-155 50 -73 23 -145 47 -175 60 -11 5 -45 19 -75 31 -30 12 -59 26 -64 31 -6
5 -16 9 -24 9 -8 0 -28 6 -45 14 -18 8 -63 24 -102 37 -73 23 -117 40 -172 65
-199 89 -460 190 -470 181 -7 -8 36 -36 87 -57 378 -152 425 -170 444 -170 11
0 27 -6 35 -14 9 -7 48 -26 86 -41 39 -15 88 -36 110 -46 22 -10 83 -34 135
-54 52 -20 109 -43 127 -51 17 -8 35 -14 40 -14 15 0 190 -78 275 -122 43 -22
80 -48 83 -58 3 -11 -11 -54 -35 -104 -22 -47 -40 -89 -40 -94 0 -5 -9 -17
-20 -27 -17 -15 -25 -16 -67 -6 -26 7 -66 21 -89 32 -24 10 -47 19 -51 19 -29
0 -220 84 -498 220 -55 27 -121 58 -147 70 -26 12 -62 31 -80 43 -18 12 -49
30 -68 39 -37 17 -470 233 -555 276 -27 14 -57 28 -65 32 -16 7 -96 48 -120
61 -60 32 -342 169 -349 169 -6 0 -29 13 -53 29 -51 34 -92 49 -86 31 3 -10
19 -20 113 -67 25 -13 386 -197 435 -222 8 -4 26 -14 40 -21 14 -7 70 -35 125
-62 55 -27 108 -53 118 -59 9 -5 77 -39 150 -75 144 -70 162 -80 222 -112 45
-24 110 -52 119 -52 4 0 24 -11 46 -25 21 -13 99 -55 172 -93 73 -38 156 -82
183 -97 47 -26 86 -46 264 -133 41 -21 97 -57 124 -82 l50 -46 -33 -64 c-45
-89 -68 -120 -90 -120 -50 0 -443 185 -521 246 -8 6 -40 23 -71 39 -32 15 -65
36 -74 47 -10 10 -21 18 -26 18 -5 0 -40 20 -77 44 -38 25 -86 54 -107 66 -21
12 -46 25 -54 30 -152 89 -189 110 -193 110 -3 0 -62 34 -130 75 -69 41 -128
75 -133 75 -4 0 -15 6 -23 13 -9 7 -29 19 -46 26 l-30 13 24 -26 c14 -14 29
-26 33 -26 5 0 24 -11 42 -25 18 -14 37 -25 42 -25 5 0 32 -15 59 -32 28 -18
68 -42 90 -53 22 -11 44 -26 48 -32 4 -7 12 -13 17 -13 5 0 28 -12 52 -27 71
-46 81 -52 133 -79 28 -14 64 -36 80 -48 17 -13 62 -40 100 -61 76 -41 270
-157 350 -210 28 -18 86 -55 130 -83 137 -87 215 -146 221 -170 5 -17 -7 -43
-46 -102 -29 -44 -60 -82 -70 -85 -10 -3 -40 3 -68 13 -61 24 -265 135 -312
171 -19 15 -46 32 -60 38 -14 6 -37 20 -50 32 -14 12 -56 44 -95 71 -38 27
-75 54 -80 58 -56 46 -289 202 -302 202 -6 0 -29 16 -50 36 -21 19 -76 60
-123 91 -47 31 -92 62 -100 70 -8 8 -37 29 -65 47 -69 46 -133 90 -252 174
-56 39 -105 72 -108 72 -4 0 -33 20 -65 45 -32 25 -61 45 -64 45 -4 0 -51 31
-159 107 -26 18 -41 23 -48 16 -7 -7 -1 -17 19 -32 17 -11 34 -21 39 -21 5 0
22 -12 39 -27 17 -16 43 -35 57 -43 15 -8 86 -55 158 -105 72 -49 138 -94 147
-100 9 -5 50 -35 91 -65 42 -30 83 -59 93 -65 51 -31 143 -93 166 -113 15 -12
65 -48 112 -80 47 -31 128 -88 182 -127 53 -38 120 -86 148 -105 28 -19 80
-56 115 -83 35 -26 67 -47 70 -47 7 0 14 -5 82 -64 29 -25 115 -89 190 -143
150 -106 213 -159 213 -177 0 -7 -17 -35 -37 -62 -77 -101 -117 -144 -138
-144 -25 0 -177 91 -227 136 -21 18 -57 45 -80 60 -24 14 -47 31 -53 38 -5 6
-41 36 -80 66 -38 30 -72 57 -75 60 -3 3 -39 33 -80 67 -233 192 -282 233
-294 245 -7 7 -71 60 -141 118 -71 58 -147 121 -169 141 -23 19 -50 42 -62 50
-19 12 -72 57 -143 118 -13 12 -28 21 -33 21 -14 0 -9 -28 7 -37 8 -5 35 -26
61 -48 109 -95 131 -113 164 -136 19 -13 60 -46 90 -74 31 -27 74 -65 95 -83
22 -19 60 -51 85 -72 58 -49 121 -100 212 -174 40 -32 78 -64 83 -70 6 -6 39
-34 75 -63 36 -28 88 -75 115 -103 28 -29 75 -69 106 -90 72 -50 259 -248 259
-275 0 -11 -13 -35 -30 -53 -16 -18 -42 -49 -56 -68 -37 -48 -73 -66 -101 -51
-11 7 -69 55 -127 107 -59 52 -121 105 -138 117 -49 36 -115 99 -404 382 -149
146 -349 340 -445 431 -231 220 -376 359 -480 461 -47 46 -97 93 -110 105 -13
11 -62 60 -108 107 -47 48 -88 87 -92 87 -24 0 -12 -23 34 -65 47 -44 466
-450 742 -720 62 -60 262 -256 445 -435 320 -313 404 -401 536 -561 100 -121
100 -107 -2 -205 -48 -46 -95 -84 -105 -84 -22 0 -102 53 -126 84 -10 12 -52
52 -93 89 -41 37 -85 81 -97 99 -12 17 -53 63 -90 102 -38 39 -85 91 -105 116
-20 25 -58 68 -83 95 -26 28 -59 66 -74 85 -37 51 -112 139 -142 169 -26 26
-181 198 -288 320 -123 140 -151 167 -151 146 0 -11 19 -40 43 -65 23 -25 67
-75 97 -110 30 -35 62 -72 70 -80 8 -9 26 -30 39 -46 43 -50 306 -349 313
-354 3 -3 21 -23 38 -45 17 -22 65 -76 105 -120 40 -44 85 -96 101 -115 15
-19 49 -58 75 -86 26 -28 56 -68 67 -90 11 -22 28 -47 37 -54 28 -23 145 -207
145 -228 0 -19 -33 -53 -110 -113 -89 -71 -105 -72 -169 -11 -91 87 -366 434
-505 637 -23 33 -63 90 -89 125 -80 109 -239 327 -287 394 -25 35 -55 76 -68
92 -12 16 -53 70 -90 120 -37 50 -74 98 -84 107 -9 9 -18 22 -21 29 -2 7 -8
10 -12 5 -5 -4 0 -20 11 -35 11 -15 42 -58 69 -97 26 -38 62 -89 79 -112 17
-23 43 -59 58 -80 81 -115 236 -325 254 -346 6 -7 32 -42 58 -80 26 -37 68
-96 94 -131 73 -100 197 -272 267 -371 35 -49 77 -108 92 -130 34 -46 133
-231 133 -248 0 -14 -40 -57 -54 -57 -6 0 -40 -20 -75 -45 -70 -49 -95 -54
-126 -27 -22 19 -106 126 -147 187 -14 22 -42 57 -62 79 -19 21 -38 51 -41 67
-4 16 -11 31 -16 34 -9 6 -111 171 -138 223 -8 15 -18 29 -22 33 -13 8 -39 99
-39 135 0 35 -24 114 -47 159 -20 39 -83 105 -100 105 -18 0 -76 54 -93 86 -8
15 -25 39 -37 52 -31 33 -29 9 2 -47 31 -54 31 -66 0 -87 -68 -44 -88 -155
-39 -214 21 -25 33 -30 58 -28 26 2 34 10 51 46 11 23 25 42 32 42 17 0 49
-74 57 -130 3 -25 2 -70 -3 -101 -13 -76 -66 -189 -89 -189 -15 0 -72 99 -118
205 -40 92 -178 365 -185 365 -4 0 -10 -4 -13 -8 -5 -9 255 -537 274 -556 19
-19 11 -62 -17 -88 -34 -31 -111 -76 -150 -87 -35 -10 -73 3 -73 24 0 15 -37
99 -59 135 -5 8 -13 24 -17 35 -6 17 -8 18 -11 3 -4 -16 6 -44 42 -123 29 -61
29 -84 3 -94 -42 -16 -185 18 -263 62 -24 13 -47 37 -58 59 -16 33 -21 36 -37
26 -21 -13 -46 1 -119 67 -111 100 -301 378 -301 440 0 17 263 552 280 568 4
5 46 10 93 10 75 2 88 5 111 26 33 31 33 46 -4 83 l-30 29 -182 -2 -183 -2 -5
66 c-3 36 -11 72 -17 79 -7 6 -13 28 -13 48 0 20 -7 45 -15 56 -8 10 -15 36
-15 56 0 23 -12 57 -30 88 -16 28 -30 56 -30 63 0 14 -80 135 -125 190 -61 75
-188 217 -194 217 -3 0 -28 20 -55 44 l-49 43 26 49 c14 27 93 184 174 349 82
165 166 334 187 375 21 41 41 82 45 90 4 8 24 47 43 85 20 39 38 78 42 88 7
22 43 22 50 -1 3 -9 27 -41 53 -69 27 -28 65 -73 87 -100 21 -26 64 -76 95
-109 31 -34 67 -74 80 -90 35 -42 158 -180 212 -239 25 -27 88 -97 139 -155
51 -58 107 -121 124 -140 18 -19 65 -73 106 -120 155 -176 169 -186 215 -156
34 22 40 51 18 85 -14 22 -214 253 -243 281 -3 3 -39 43 -79 90 -41 47 -109
123 -151 170 -190 210 -338 378 -354 402 -17 25 -16 27 15 71 26 38 29 48 20
66 -17 31 -65 53 -93 42 -13 -5 -50 -6 -83 -2 -46 5 -59 10 -56 21 3 15 3 24
0 101 0 20 7 48 16 63 l17 26 223 0 c176 0 225 3 234 14 8 9 11 94 9 287 l-3
274 -105 3 c-58 1 -111 4 -117 7 -9 3 -1 27 26 77 38 72 414 817 988 1958 162
322 347 689 411 815 64 127 134 254 156 284 43 57 232 231 252 231 6 0 23 -9
37 -20z m-5529 -40 c8 -6 27 -33 42 -58 15 -26 47 -73 71 -104 23 -31 43 -59
43 -63 0 -3 4 -11 10 -18 26 -32 80 -108 80 -112 0 -11 44 -65 52 -65 20 0 3
34 -54 112 -35 47 -83 117 -108 157 -25 40 -58 89 -75 108 -44 53 -27 59 148
58 160 -1 166 -3 196 -64 30 -61 93 -175 105 -191 6 -8 20 -32 31 -53 18 -36
55 -69 55 -49 0 5 -11 26 -25 46 -14 20 -25 39 -25 41 0 2 -20 38 -45 79 -25
42 -45 79 -45 82 0 4 -14 24 -31 46 -22 28 -29 42 -21 50 14 14 228 19 269 7
19 -6 35 -19 39 -32 4 -12 17 -39 30 -59 13 -20 26 -48 30 -62 6 -25 24 -37
24 -16 0 9 -26 66 -57 123 -8 16 -11 32 -7 37 10 9 107 15 202 12 68 -2 62 3
92 -79 13 -36 40 -45 40 -14 0 11 -8 33 -17 50 -13 23 -15 33 -6 39 8 5 3188
9 3226 3 13 -2 7 -58 -8 -71 -8 -7 -15 -19 -15 -28 0 -8 -7 -23 -16 -33 -8 -9
-14 -28 -12 -41 l4 -23 12 25 c27 55 75 136 93 154 15 17 34 20 123 22 129 2
137 -2 108 -54 -27 -49 -29 -66 -4 -53 10 5 27 28 38 50 13 29 28 43 49 50 45
13 312 8 326 -6 9 -9 3 -24 -28 -65 -22 -29 -57 -78 -78 -108 -21 -30 -41 -57
-45 -60 -8 -7 -50 -76 -50 -84 0 -21 25 7 96 104 131 183 157 213 189 222 32
8 65 2 65 -12 0 -4 -28 -39 -61 -76 -104 -116 -122 -136 -198 -223 -40 -46
-88 -100 -106 -120 -18 -20 -71 -78 -117 -130 -45 -52 -126 -142 -178 -201
-52 -58 -125 -139 -161 -180 -36 -41 -146 -165 -244 -275 -98 -110 -205 -231
-239 -269 -34 -38 -66 -74 -71 -80 -6 -6 -44 -49 -85 -96 -41 -47 -90 -102
-110 -124 -57 -62 -72 -80 -120 -136 -78 -92 -87 -97 -112 -58 -21 31 -29 8
-11 -30 l15 -32 -73 -82 c-40 -46 -105 -119 -145 -163 -39 -44 -170 -190 -289
-325 -339 -381 -347 -390 -364 -390 -9 0 -36 24 -61 52 -39 45 -135 153 -375
423 -132 149 -331 372 -361 405 -72 79 -77 88 -64 121 15 34 5 52 -14 26 -25
-33 -26 -31 -207 173 -93 106 -207 234 -244 274 -11 12 -33 38 -50 58 -24 28
-141 159 -190 212 -6 6 -40 45 -76 86 -58 66 -441 498 -523 590 -56 63 -199
224 -271 305 -38 43 -108 121 -154 173 -62 68 -81 96 -72 102 21 12 198 5 215
-10z m4946 -425 c0 -8 -24 -54 -53 -102 -30 -49 -57 -102 -61 -118 -7 -31 -24
-64 -537 -1080 -172 -341 -421 -836 -554 -1100 l-241 -480 -169 -3 -169 -3
-50 49 c-51 49 -120 98 -166 118 -14 6 -45 20 -70 31 -65 30 -158 54 -215 56
-63 3 -65 19 -10 79 22 24 74 81 115 128 41 47 80 90 85 96 6 6 42 46 80 90
39 43 108 121 155 174 46 52 122 138 169 190 46 52 90 102 98 110 12 13 16 12
33 -10 10 -14 21 -35 25 -47 3 -12 19 -52 36 -90 43 -97 45 -102 71 -163 12
-30 31 -69 41 -87 17 -29 20 -31 45 -21 15 7 33 16 41 22 7 6 22 15 34 21 46
23 43 37 -34 142 -41 55 -107 146 -147 202 -85 117 -86 100 14 211 33 36 91
101 129 145 39 43 77 85 85 94 9 9 47 52 85 96 39 44 110 125 160 180 81 91
166 187 265 300 20 22 96 108 170 190 74 83 166 186 205 230 38 44 72 82 75
85 3 3 51 56 105 119 55 63 109 125 120 138 23 26 35 29 35 8z m-4899 -92 c38
-38 131 -138 207 -223 75 -85 160 -179 187 -210 28 -31 84 -94 125 -140 41
-47 102 -114 135 -151 33 -36 87 -96 120 -134 33 -38 96 -109 140 -159 223
-250 272 -305 299 -337 16 -19 70 -78 118 -131 104 -113 105 -86 -15 -251 -44
-62 -101 -141 -125 -177 -24 -36 -51 -73 -60 -82 -11 -13 -12 -21 -3 -31 9
-11 124 -77 134 -77 4 0 52 104 87 185 12 28 25 59 30 70 5 11 25 59 46 108
20 48 41 87 48 86 6 0 56 -52 111 -115 130 -150 150 -171 194 -219 20 -22 70
-78 110 -125 41 -47 109 -123 151 -170 43 -47 99 -110 125 -140 27 -30 57 -63
67 -74 10 -11 17 -24 15 -30 -4 -13 -81 -35 -159 -46 -37 -5 -84 -18 -105 -30
-21 -11 -42 -20 -47 -20 -21 0 -134 -62 -156 -85 -13 -14 -28 -25 -34 -25 -6
0 -35 -20 -63 -45 l-52 -46 -132 3 -132 3 -257 510 c-141 281 -452 897 -690
1370 -238 473 -448 888 -466 922 -57 105 -47 108 47 16z m2578 -2603 c130 0
229 -34 368 -126 49 -33 113 -101 113 -122 0 -22 73 -117 109 -140 47 -30 92
-102 102 -162 4 -25 13 -65 20 -89 9 -33 9 -51 1 -75 -15 -40 -16 -133 -2
-141 16 -10 12 -55 -5 -55 -8 0 -15 5 -15 12 0 18 -41 58 -60 58 -10 0 -28 8
-41 18 -13 10 -54 35 -91 56 -83 45 -168 143 -168 191 0 17 -7 41 -16 53 -8
12 -12 26 -9 32 3 5 -3 31 -14 56 -12 26 -21 54 -21 63 0 9 -9 41 -19 71 -14
38 -27 57 -47 68 -16 8 -40 25 -54 37 -14 13 -45 32 -70 42 -25 11 -64 28 -88
38 -36 16 -70 19 -197 19 -177 0 -182 -1 -386 -111 -40 -21 -62 -25 -153 -27
-92 -2 -106 0 -104 13 2 9 23 26 48 39 25 13 52 30 61 38 8 8 22 14 29 14 7 0
21 6 29 14 9 7 43 24 76 37 33 13 69 29 80 36 37 22 169 43 275 43 58 0 111 4
119 9 9 6 24 6 38 0 14 -5 55 -9 92 -9z m4752 -302 c20 -326 21 -438 10 -642
-19 -327 -57 -592 -128 -881 -14 -55 -29 -118 -34 -140 -5 -22 -14 -51 -18
-65 -5 -14 -19 -59 -31 -100 -12 -41 -25 -84 -30 -95 -4 -11 -18 -49 -30 -85
-12 -36 -26 -74 -31 -85 -4 -11 -25 -63 -45 -115 -34 -88 -132 -305 -170 -375
-73 -136 -105 -189 -248 -417 -107 -170 -265 -364 -551 -676 -53 -59 -187
-188 -256 -248 -31 -27 -87 -75 -124 -108 -89 -78 -154 -129 -250 -198 -44
-31 -96 -69 -115 -83 -59 -44 -162 -113 -210 -140 -25 -14 -58 -34 -75 -45
-16 -10 -77 -45 -135 -76 -58 -32 -121 -67 -140 -78 -33 -20 -130 -67 -280
-134 -129 -58 -379 -155 -437 -169 -17 -4 -27 2 -42 28 -27 43 -26 56 2 64 12
4 49 18 82 30 33 13 103 39 155 59 52 20 103 41 112 46 10 6 23 10 29 10 34 0
546 267 679 355 19 12 80 52 135 88 270 177 557 419 796 672 223 236 261 281
379 442 210 287 325 468 449 708 233 449 384 899 470 1400 44 257 53 387 56
780 4 465 4 440 11 432 3 -3 10 -74 15 -159z m-4784 125 c18 -7 41 -13 51 -13
24 0 58 -35 43 -45 -6 -3 -17 -3 -23 2 -7 4 -123 8 -258 8 -201 0 -245 2 -245
14 0 19 127 50 203 49 34 -1 65 2 69 6 10 10 122 -5 160 -21z m1226 -117 c15
-32 17 -57 14 -169 -3 -73 -9 -154 -13 -181 l-9 -48 -170 -3 c-93 -2 -183 -5
-200 -7 l-30 -3 -5 67 c-3 37 -11 73 -17 80 -7 6 -13 23 -13 36 0 13 -13 44
-30 69 -16 24 -30 48 -30 52 0 4 -27 29 -61 55 -102 80 -101 80 236 86 160 3
295 5 300 4 6 0 18 -17 28 -38z m-1006 -28 c12 -16 69 -200 77 -249 4 -20 20
-57 37 -82 17 -26 28 -51 24 -57 -5 -7 -59 -10 -160 -9 -84 1 -158 -2 -164 -5
-13 -9 -15 -138 -2 -152 12 -11 19 -1104 8 -1104 -5 0 -79 69 -165 154 -86 85
-180 173 -209 195 -29 23 -58 51 -65 63 -10 18 -14 115 -16 401 -1 209 -4 383
-8 388 -3 5 -249 9 -565 9 -308 0 -565 2 -570 6 -6 3 -9 92 -8 230 l2 224 887
0 c698 0 890 -3 897 -12z m262 -494 c51 -30 61 -41 61 -63 0 -36 -392 -815
-412 -819 -11 -2 -17 10 -21 50 -9 68 -9 831 -1 852 5 14 29 16 159 16 l154 0
60 -36z m-1333 -39 c4 -8 3 -23 -1 -32 -12 -28 -14 -105 -5 -138 5 -16 19 -63
31 -104 39 -133 105 -222 328 -439 58 -56 130 -121 159 -145 30 -23 78 -64
107 -92 153 -143 253 -234 376 -343 75 -66 146 -133 158 -149 75 -97 139 -196
155 -243 3 -8 10 -22 15 -30 27 -47 41 -80 41 -97 0 -10 7 -27 15 -37 8 -11
15 -28 15 -38 0 -11 7 -32 16 -49 8 -17 16 -58 18 -92 1 -34 8 -72 14 -84 18
-33 16 -272 -3 -316 -8 -20 -15 -48 -15 -63 0 -14 -6 -38 -13 -52 -8 -15 -21
-43 -30 -62 -8 -19 -18 -42 -22 -50 -46 -102 -124 -213 -175 -247 -82 -55
-129 -83 -144 -83 -20 0 -26 38 -17 116 0 7 27 31 59 54 64 47 115 108 164
196 l33 59 0 145 c-1 125 -4 155 -24 215 -41 122 -54 156 -62 161 -5 3 -9 14
-9 25 0 25 -91 214 -135 279 -19 29 -62 82 -96 118 -34 37 -69 78 -78 92 -9
14 -52 58 -96 98 -44 40 -129 120 -190 177 -137 130 -200 184 -305 259 -67 49
-104 87 -204 213 -71 89 -138 185 -158 226 -89 182 -95 199 -112 327 -17 131
-21 222 -9 233 3 4 48 7 100 7 74 0 95 -3 99 -15z m299 -3 l70 -7 2 -274 c1
-151 6 -286 12 -302 18 -52 -13 -53 -65 -1 -49 49 -164 200 -176 232 -17 43
-39 94 -55 125 -21 40 -30 194 -13 224 13 25 22 25 225 3z m-540 -374 c5 -34
18 -67 36 -92 16 -22 29 -48 29 -57 0 -10 4 -20 8 -23 4 -2 25 -39 46 -80 21
-41 58 -97 81 -123 24 -26 83 -94 132 -150 63 -73 111 -117 166 -154 43 -28
84 -60 92 -72 11 -18 14 -102 15 -447 2 -407 -5 -555 -29 -584 -5 -6 -61 -116
-125 -243 -64 -128 -118 -233 -121 -233 -53 0 -106 171 -95 310 l5 65 60 3
c32 2 65 8 72 14 21 17 15 62 -11 87 -20 19 -31 22 -64 16 -32 -5 -41 -3 -46
12 -4 10 -1 22 7 28 8 5 46 58 85 116 39 59 90 122 112 141 42 36 55 83 26 94
-22 8 -114 -43 -180 -100 -67 -58 -174 -180 -196 -222 -32 -65 -30 -64 -192
-64 -163 0 -203 -10 -214 -54 -15 -61 35 -86 171 -82 50 1 98 -2 108 -6 15 -8
17 -25 17 -136 0 -195 36 -304 136 -412 l55 -59 -20 -61 c-40 -120 -175 -289
-330 -412 -98 -77 -138 -75 -96 6 8 15 15 39 15 51 0 13 6 36 14 52 18 37 36
89 46 133 4 19 12 46 17 60 6 14 18 52 28 85 9 33 24 79 32 102 8 23 13 57 11
75 -3 33 -3 33 -21 -17 -10 -27 -22 -68 -28 -90 -5 -22 -14 -51 -18 -65 -5
-14 -19 -59 -31 -100 -11 -41 -25 -82 -30 -91 -4 -9 -11 -37 -15 -63 -4 -25
-11 -48 -15 -51 -4 -3 -16 -36 -25 -75 -9 -39 -26 -81 -37 -95 -44 -56 -282
-90 -322 -47 -15 18 -15 23 10 78 34 77 38 88 65 159 13 33 27 64 31 69 4 6 8
17 8 25 1 9 9 34 20 56 11 22 19 46 20 53 0 7 4 20 9 30 5 9 20 44 32 77 25
69 30 83 58 149 12 27 21 56 21 65 0 9 7 25 15 35 8 11 15 31 15 44 0 21 -2
22 -15 12 -8 -7 -15 -20 -15 -30 0 -9 -3 -20 -6 -23 -10 -9 -54 -120 -54 -134
0 -6 -6 -24 -14 -40 -13 -26 -25 -56 -63 -158 -16 -44 -39 -97 -87 -208 -9
-21 -16 -42 -16 -48 0 -6 -6 -25 -14 -42 -8 -18 -22 -56 -32 -85 -10 -29 -24
-57 -30 -63 -39 -32 -234 138 -234 204 0 22 15 64 38 107 36 65 52 101 52 115
0 30 -19 5 -60 -80 -23 -47 -46 -85 -51 -85 -19 0 -39 69 -39 131 0 77 16 132
47 161 20 19 25 20 33 8 5 -8 10 -22 10 -31 0 -8 16 -30 35 -49 l34 -33 23 28
c29 37 43 63 58 112 12 37 79 177 123 258 12 22 31 60 41 85 11 25 26 53 34
62 7 9 12 27 10 40 -3 20 -6 17 -26 -23 -12 -25 -22 -49 -22 -54 0 -5 -6 -16
-14 -24 -20 -23 -106 -192 -106 -211 -1 -8 -11 -28 -24 -44 l-24 -29 -45 48
c-46 47 -46 48 -102 43 -31 -3 -58 -1 -61 4 -9 15 -52 -31 -86 -92 -17 -30
-53 -93 -80 -140 -27 -47 -53 -92 -58 -100 -5 -8 -31 -52 -59 -97 -28 -45 -51
-84 -51 -87 0 -3 -13 -24 -29 -48 -16 -24 -37 -59 -48 -78 -10 -19 -31 -54
-46 -78 -15 -24 -32 -53 -37 -65 -12 -27 -23 -45 -79 -126 -65 -94 -100 -131
-125 -131 -34 0 -180 101 -184 127 -4 27 55 157 108 239 22 33 40 64 40 68 0
5 17 34 38 65 21 31 57 88 80 126 23 39 71 111 107 160 36 50 99 140 140 200
41 61 97 142 125 180 27 39 80 115 117 170 37 55 95 137 129 181 34 45 87 119
117 165 30 46 65 93 76 103 12 11 21 23 21 28 0 6 9 21 20 35 24 30 25 43 6
43 -8 0 -18 -9 -21 -20 -3 -11 -10 -20 -15 -20 -5 0 -19 -17 -31 -37 -13 -21
-35 -54 -51 -73 -15 -19 -28 -38 -28 -43 0 -7 -49 -77 -79 -113 -16 -20 -101
-145 -101 -150 0 -3 -16 -25 -86 -119 -17 -24 -102 -144 -124 -175 -45 -66
-217 -308 -315 -442 -34 -46 -87 -121 -119 -168 -74 -109 -259 -325 -277 -324
-20 1 -177 122 -196 150 -15 23 -13 28 41 117 126 206 172 273 261 381 33 40
74 90 90 111 17 22 46 58 65 81 19 23 46 57 60 75 14 18 42 53 63 78 35 43 44
61 32 61 -9 0 -55 -52 -55 -61 0 -5 -27 -37 -60 -71 -33 -35 -60 -67 -60 -71
0 -5 -35 -48 -78 -95 -43 -48 -90 -103 -104 -122 -14 -19 -36 -47 -49 -61 -13
-14 -44 -50 -68 -80 -73 -88 -234 -239 -256 -239 -23 0 -175 144 -175 166 0
77 183 288 716 826 156 157 284 291 284 297 0 6 -5 11 -12 11 -6 0 -216 -206
-467 -459 -437 -439 -596 -586 -627 -579 -23 5 -154 161 -154 183 0 20 22 59
50 87 153 158 350 354 387 384 26 21 84 70 128 109 80 70 106 92 220 195 71
63 150 132 250 215 77 65 138 119 169 150 12 12 41 36 66 55 24 19 52 42 61
50 8 8 29 26 45 39 16 13 72 63 124 110 52 47 101 91 108 96 7 6 23 21 36 33
22 23 25 23 54 8 59 -31 66 -26 233 162 67 75 143 160 168 187 25 28 77 86
116 130 38 44 92 105 120 135 27 31 80 89 116 130 36 41 88 100 115 131 27 30
63 72 81 92 17 20 36 37 41 37 6 0 13 -24 17 -52z m7036 -195 c-6 -23 -11 -64
-11 -91 0 -27 -7 -69 -15 -92 -8 -23 -15 -65 -15 -92 0 -27 -7 -65 -15 -85 -8
-19 -15 -55 -15 -78 0 -23 -7 -59 -15 -78 -8 -20 -15 -51 -15 -69 0 -18 -7
-42 -15 -52 -8 -11 -15 -40 -15 -65 0 -25 -7 -55 -15 -65 -8 -11 -15 -31 -15
-45 0 -14 -6 -38 -14 -53 -8 -14 -17 -45 -21 -67 -4 -23 -11 -43 -16 -47 -5
-3 -9 -17 -9 -31 0 -14 -6 -39 -14 -56 -8 -18 -24 -63 -36 -102 -12 -38 -29
-84 -36 -102 -8 -17 -14 -36 -14 -41 0 -6 -8 -25 -17 -44 -9 -18 -22 -45 -30
-60 -7 -14 -13 -35 -13 -46 0 -12 -4 -23 -9 -27 -5 -3 -12 -18 -16 -34 -3 -16
-13 -35 -21 -42 -8 -6 -14 -19 -14 -28 0 -10 -13 -44 -30 -76 -16 -32 -30 -66
-30 -75 0 -9 -4 -20 -10 -26 -5 -5 -38 -66 -73 -134 -35 -69 -80 -154 -99
-190 -20 -36 -44 -81 -54 -100 -11 -19 -25 -39 -31 -43 -7 -4 -13 -12 -13 -18
0 -5 -12 -28 -27 -52 -38 -57 -51 -79 -60 -97 -9 -19 -188 -285 -205 -306 -7
-8 -19 -21 -25 -29 -7 -7 -13 -16 -13 -19 0 -9 -133 -180 -147 -189 -7 -4 -13
-15 -13 -22 0 -8 -4 -15 -8 -15 -5 0 -20 -15 -33 -34 -13 -19 -47 -59 -74 -89
-28 -30 -86 -94 -129 -143 -95 -107 -332 -343 -400 -399 -27 -22 -71 -62 -100
-88 -28 -27 -78 -69 -111 -95 -33 -25 -68 -54 -78 -64 -23 -23 -294 -228 -302
-228 -4 0 -33 -20 -65 -45 -32 -25 -61 -45 -65 -45 -3 0 -18 -9 -33 -19 -73
-51 -200 -129 -219 -135 -13 -4 -23 -11 -23 -16 0 -4 -12 -13 -27 -19 -16 -6
-44 -21 -63 -32 -60 -37 -132 -77 -215 -119 -44 -23 -87 -45 -95 -49 -16 -9
-76 -35 -100 -45 -8 -3 -22 -10 -30 -15 -39 -22 -172 -82 -280 -126 -25 -10
-59 -24 -77 -31 -17 -8 -37 -14 -45 -14 -7 0 -22 -7 -32 -15 -11 -8 -28 -15
-39 -15 -10 0 -31 -6 -45 -14 -33 -16 -85 -35 -131 -46 -18 -5 -38 -13 -44
-19 -6 -6 -21 -11 -34 -11 -12 0 -37 -6 -55 -14 -54 -22 -295 -89 -383 -105
-22 -4 -56 -12 -75 -19 -19 -6 -60 -16 -91 -22 -53 -10 -56 -13 -77 -58 -45
-102 -214 -233 -297 -231 -11 0 16 17 60 38 97 45 177 120 218 203 23 47 33
58 60 63 61 11 263 60 332 80 201 57 223 63 365 110 158 52 193 64 212 75 10
6 23 10 29 10 6 0 25 6 42 14 18 8 73 31 122 51 50 19 99 40 110 45 98 44 249
115 286 134 145 74 205 106 302 163 59 35 109 63 112 63 9 0 234 147 390 255
79 54 261 193 316 239 19 17 57 49 84 71 28 22 70 58 95 80 24 22 63 56 85 75
131 114 454 453 619 651 104 125 400 539 429 599 4 8 15 27 25 42 31 49 102
167 138 230 33 59 220 437 249 503 32 75 44 103 60 145 10 25 23 59 30 75 7
17 21 50 30 75 9 25 23 60 31 78 8 18 14 40 14 48 0 9 6 30 14 47 8 18 22 57
31 87 10 30 23 73 30 95 34 107 47 150 55 188 5 23 16 69 24 102 26 105 36
148 51 215 32 150 70 391 80 509 4 40 9 80 13 90 12 27 14 -101 3 -146z
m-6205 -765 c76 -79 160 -161 186 -183 25 -22 65 -64 88 -93 l42 -52 -2 -299
c0 -213 3 -306 11 -325 10 -21 10 -31 -1 -52 -11 -20 -12 -29 -2 -44 8 -13 12
-72 12 -179 0 -113 4 -170 14 -199 12 -32 15 -105 16 -329 1 -333 13 -278
-126 -580 -13 -28 -24 -55 -24 -59 0 -13 -59 -132 -69 -138 -11 -7 -51 40 -51
59 0 7 -7 18 -15 25 -8 7 -15 20 -15 30 0 10 -13 45 -30 78 -16 34 -30 64 -30
69 0 4 -14 37 -31 73 -97 206 -93 181 -90 500 2 165 -1 285 -7 301 -13 32 -20
259 -28 864 -3 259 -7 516 -8 573 -1 71 1 102 9 102 7 0 74 -64 151 -142z
m435 -460 c4 -15 21 -55 38 -89 17 -34 31 -68 31 -75 0 -7 4 -14 9 -16 5 -1
23 -39 41 -83 64 -160 92 -316 58 -323 -10 -2 -19 5 -23 20 -11 40 -156 322
-177 345 -16 17 -20 38 -23 105 -1 45 -6 98 -10 116 -8 32 -7 33 20 30 21 -2
31 -10 36 -30z m-931 -106 c0 -5 -12 -28 -28 -53 -44 -71 -50 -81 -80 -144
-16 -33 -35 -80 -42 -105 -19 -66 -24 -268 -8 -322 49 -158 251 -338 380 -338
85 0 89 -4 86 -79 l-3 -66 -30 2 c-45 2 -133 27 -147 41 -6 6 -16 12 -20 12
-13 0 -107 60 -186 118 -81 60 -104 91 -128 172 -9 30 -19 60 -24 65 -24 30
-38 298 -19 360 25 84 63 152 110 198 27 27 49 54 49 61 0 6 16 28 36 49 35
36 54 46 54 29z m930 -426 c0 -6 34 -78 75 -159 l76 -148 -21 -29 c-51 -71
-138 -128 -154 -101 -9 13 -20 437 -12 456 5 14 9 15 21 5 8 -7 15 -18 15 -24z
m-636 -168 c3 -57 8 -154 11 -217 l6 -114 -28 8 c-15 3 -46 9 -68 12 -22 3
-47 11 -55 18 -8 7 -25 16 -37 19 -17 6 -23 15 -23 36 0 16 4 31 8 34 9 5 136
258 146 289 3 9 12 17 20 17 11 0 15 -23 20 -102z m-269 -490 c15 -13 129
-229 281 -532 140 -281 260 -516 266 -523 16 -20 6 -25 -79 -34 -108 -12 -328
-46 -528 -83 -195 -36 -265 -48 -345 -62 -47 -8 -119 -21 -160 -29 -165 -29
-237 -38 -254 -32 -16 6 -17 15 -12 65 14 120 48 292 82 412 52 182 49 177
116 211 99 50 165 97 253 179 46 44 89 81 95 81 5 1 15 2 21 3 7 0 18 18 25
39 7 21 38 76 69 122 31 47 70 112 87 145 18 33 38 60 45 60 7 0 24 -10 38
-22z m-1455 -70 c0 -68 28 -194 55 -252 30 -63 30 -64 9 -105 -20 -40 -9 -54
16 -21 l19 25 68 -70 c37 -39 94 -86 125 -105 64 -39 68 -52 39 -114 -11 -23
-31 -68 -44 -101 -74 -178 -137 -304 -159 -316 -17 -9 -45 0 -165 57 -78 38
-93 52 -93 88 0 33 34 137 90 274 19 45 31 85 27 88 -9 9 -42 -31 -68 -81 -12
-22 -51 -86 -87 -142 -49 -75 -73 -103 -88 -103 -21 0 -126 52 -156 78 -10 8
-18 25 -18 36 0 29 42 145 86 236 20 41 41 86 47 100 6 14 33 62 59 106 26 45
48 85 48 89 0 3 11 21 24 38 14 18 30 43 35 57 6 14 20 39 31 55 11 17 30 51
42 78 29 63 58 66 58 5z m2750 -30 c93 -156 227 -311 358 -411 33 -26 63 -47
66 -47 3 0 22 -11 43 -25 39 -27 73 -76 73 -107 0 -9 5 -20 10 -23 6 -3 10
-15 10 -27 0 -11 6 -34 14 -51 20 -47 97 -303 111 -372 7 -33 9 -64 5 -68 -4
-5 -23 -2 -41 7 -53 24 -122 46 -149 47 -52 2 -94 24 -102 55 -23 95 -30 119
-37 129 -5 5 -12 26 -15 45 -4 19 -13 58 -21 85 -25 87 -73 289 -79 328 -6 44
-24 73 -38 59 -9 -9 -1 -43 37 -163 8 -26 15 -59 15 -73 0 -15 5 -36 11 -47 6
-11 14 -41 19 -67 5 -26 18 -81 29 -122 11 -41 26 -103 33 -136 l14 -62 -80
-7 c-45 -4 -101 -10 -125 -15 -75 -14 -88 -3 -96 79 -11 106 -30 104 -21 -2 8
-97 7 -99 -73 -112 -99 -16 -162 -8 -303 39 -74 25 -158 51 -186 56 -27 6 -58
17 -68 25 -17 12 -17 15 -3 32 9 10 128 244 265 520 170 343 254 502 265 502
9 1 34 -29 59 -71z m1360 -69 c0 -6 23 -48 50 -94 28 -46 50 -86 50 -89 0 -3
14 -25 30 -48 17 -22 30 -47 30 -53 0 -7 6 -15 14 -18 8 -3 20 -23 26 -44 7
-21 34 -74 59 -118 59 -101 105 -209 98 -229 -7 -16 -69 -58 -154 -103 -51
-27 -52 -27 -74 -8 -12 11 -38 45 -59 75 -20 30 -58 85 -83 123 -26 37 -47 70
-47 73 0 8 -44 69 -52 72 -5 2 -8 10 -8 18 0 9 -12 41 -26 72 -22 49 -24 60
-13 77 49 76 98 172 104 203 9 51 32 102 44 102 6 0 11 -5 11 -11z m-163 -398
c12 -24 27 -49 31 -55 5 -6 26 -51 46 -101 21 -49 42 -94 46 -100 14 -19 70
-181 70 -204 0 -18 -15 -29 -77 -57 -43 -20 -88 -40 -99 -46 -30 -14 -51 2
-102 76 -39 57 -151 270 -152 289 0 5 -7 24 -16 42 -24 51 -15 66 56 103 36
18 85 49 109 68 25 19 49 33 55 31 6 -2 20 -23 33 -46z m-497 -96 c51 -9 106
-13 136 -9 48 6 52 4 71 -23 20 -29 46 -101 58 -163 4 -19 25 -90 47 -157 46
-141 46 -172 3 -192 -44 -21 -156 -61 -171 -61 -21 0 -55 41 -81 100 -14 30
-34 75 -45 100 -11 25 -35 81 -53 125 -18 44 -41 100 -53 125 -33 74 -54 149
-48 166 4 11 13 14 29 10 12 -3 60 -13 107 -21z m-2948 -7 c53 -9 78 -9 113 0
25 7 59 12 76 12 29 0 31 -2 24 -27 -3 -15 -14 -43 -22 -62 -9 -20 -22 -58
-28 -86 -26 -104 -47 -172 -69 -220 -13 -27 -31 -72 -40 -100 -36 -111 -65
-132 -138 -101 -18 8 -61 24 -96 37 -34 12 -67 30 -72 39 -14 26 12 161 55
285 19 57 40 128 45 157 11 56 41 93 68 83 9 -3 46 -11 84 -17z"/>
<path d="M6335 4204 c-125 -34 -282 -61 -397 -69 -58 -5 -105 -13 -115 -21
-17 -13 -17 -15 1 -29 14 -10 44 -15 96 -15 100 0 155 -20 264 -94 l88 -61
107 1 c115 1 191 18 299 66 69 30 120 37 195 24 42 -7 47 -6 47 10 -1 13 -30
37 -84 72 -233 147 -315 166 -501 116z m303 -79 c95 -47 94 -62 -2 -97 -76
-29 -96 -33 -96 -20 0 4 -2 38 -3 75 -2 37 -1 70 2 72 9 10 29 4 99 -30z
m-323 -50 c11 -28 23 -51 28 -53 4 -2 7 -12 7 -23 0 -34 -50 -23 -128 29 -39
26 -72 53 -72 59 0 7 12 15 28 18 15 3 41 10 57 15 48 13 58 8 80 -45z"/>
<path d="M7460 4216 c0 -20 22 -35 61 -42 19 -3 71 -24 116 -46 100 -48 144
-56 178 -34 41 27 34 62 -19 86 -25 11 -55 20 -68 20 -13 0 -58 7 -101 15
-101 19 -167 20 -167 1z"/>
<path d="M2965 9780 c11 -5 34 -9 51 -9 16 -1 35 -6 41 -12 11 -11 102 -36
180 -49 28 -4 57 -11 63 -15 7 -4 37 -13 68 -20 80 -18 144 -35 167 -45 35
-13 101 -26 114 -22 24 8 -10 32 -46 32 -19 0 -43 5 -54 11 -11 6 -41 14 -67
19 -83 16 -139 29 -194 45 -160 48 -272 75 -310 74 -28 0 -30 -2 -13 -9z"/>
<path d="M3060 9500 c14 -4 41 -8 61 -9 19 -1 55 -7 80 -15 48 -15 144 -35
224 -47 28 -4 100 -17 160 -29 279 -55 395 -74 402 -66 12 11 -10 24 -49 29
-24 3 -74 13 -113 22 -38 9 -104 21 -145 26 -41 5 -97 14 -125 20 -27 5 -79
14 -115 19 -36 5 -81 14 -100 19 -85 24 -342 53 -280 31z"/>
<path d="M2662 9259 c10 -5 72 -12 138 -14 66 -3 128 -9 138 -14 9 -5 64 -12
122 -15 58 -4 151 -14 208 -22 64 -9 109 -11 119 -5 27 15 -12 27 -112 35 -49
4 -142 11 -205 16 -63 5 -135 14 -160 19 -61 14 -271 14 -248 0z"/>
<path d="M4090 8515 c-57 -14 -144 -29 -241 -44 -31 -5 -79 -13 -105 -19 -117
-25 -164 -34 -237 -42 -43 -4 -83 -12 -90 -18 -7 -5 -37 -12 -67 -15 -97 -10
-245 -38 -255 -49 -12 -13 142 -3 159 11 6 4 40 11 76 14 36 3 85 10 110 16
72 17 266 52 410 75 85 14 206 36 310 57 30 6 59 15 65 20 13 13 -68 9 -135
-6z"/>
<path d="M6264 12475 c-50 -7 -106 -17 -125 -23 -19 -6 -61 -18 -94 -27 -172
-46 -381 -154 -547 -282 -84 -64 -206 -188 -274 -278 -136 -181 -154 -223
-115 -275 11 -16 21 -32 21 -35 0 -3 33 -50 74 -104 111 -147 236 -268 378
-366 43 -30 205 -125 212 -125 3 0 34 -13 69 -30 36 -16 70 -30 76 -30 6 0 25
-6 43 -14 140 -59 278 -80 518 -80 172 0 221 4 305 22 346 75 606 217 847 463
96 98 215 257 249 331 11 25 8 34 -31 100 -24 40 -46 75 -49 78 -3 3 -20 25
-36 49 -80 119 -321 333 -471 418 -117 67 -202 105 -339 150 -202 67 -477 90
-711 58z m461 -184 c125 -22 186 -37 232 -57 17 -8 36 -14 42 -14 24 0 143
-65 153 -84 7 -12 9 -60 5 -130 -4 -88 -11 -128 -35 -192 -80 -220 -259 -376
-491 -428 -303 -67 -616 98 -748 394 -39 87 -62 238 -49 325 7 46 8 46 79 80
110 51 197 79 208 68 6 -6 0 -32 -16 -71 -75 -185 16 -420 198 -513 175 -90
379 -50 512 100 40 46 49 62 80 141 12 30 20 107 16 148 -1 16 -31 15 -55 -3
-30 -23 -141 -19 -196 6 -81 36 -140 109 -155 191 -4 20 -4 41 0 47 9 16 97
13 220 -8z m-1071 -336 c23 -199 111 -381 250 -519 183 -181 442 -269 694
-237 362 47 636 296 722 656 11 48 20 102 20 120 0 19 5 37 11 40 20 13 195
-151 284 -266 63 -82 69 -97 56 -126 -33 -73 -209 -264 -321 -350 -128 -97
-303 -187 -455 -233 -38 -12 -83 -25 -100 -30 -16 -5 -95 -17 -174 -26 -133
-15 -154 -15 -285 0 -227 26 -416 88 -591 194 -151 90 -302 227 -411 372 -31
41 -58 81 -61 87 -16 39 314 399 347 378 4 -2 10 -29 14 -60z"/>
<path d="M6486 10449 c-2 -13 -12 -96 -21 -184 -9 -88 -21 -196 -27 -240 -20
-160 -26 -250 -17 -267 8 -14 23 -18 73 -18 40 0 68 5 74 13 11 13 2 183 -13
262 -3 17 -9 75 -15 130 -26 284 -41 368 -54 304z"/>
<path d="M4645 6878 c-22 -29 -49 -62 -60 -74 -39 -42 -61 -69 -77 -95 -15
-23 -116 -149 -163 -201 -8 -10 -15 -20 -15 -23 0 -3 -10 -16 -23 -28 -40 -38
-100 -117 -94 -123 6 -6 57 43 57 55 0 3 21 29 46 56 24 28 48 55 52 60 4 6
34 42 66 80 32 39 75 90 95 114 20 24 43 51 52 60 9 9 34 39 55 66 21 28 44
56 51 63 14 15 18 42 5 42 -4 0 -26 -23 -47 -52z"/>
<path d="M5595 5033 c-10 -66 -25 -130 -47 -201 -5 -19 -14 -57 -18 -85 -8
-49 -17 -90 -42 -197 -20 -87 -21 -130 -5 -130 21 0 27 21 43 135 20 155 33
228 44 255 5 14 14 52 19 85 5 33 14 78 20 100 13 50 14 75 1 75 -5 0 -12 -17
-15 -37z"/>
<path d="M7916 14775 c10 -8 34 -15 52 -15 18 0 47 -6 65 -14 18 -7 54 -16 79
-20 26 -4 50 -11 53 -17 4 -5 18 -9 33 -9 15 -1 38 -7 52 -15 14 -8 34 -14 45
-15 11 0 32 -6 47 -14 15 -8 42 -17 60 -21 18 -4 38 -11 43 -15 6 -4 26 -11
45 -15 19 -4 44 -14 55 -21 11 -8 31 -14 45 -14 14 0 34 -7 44 -15 29 -22 55
-19 49 5 -4 15 -14 20 -40 20 -39 0 -76 17 -68 31 4 5 -13 9 -40 9 -50 0 -89
15 -80 31 4 5 -13 9 -39 9 -52 0 -100 16 -91 30 4 6 -13 10 -44 10 -38 0 -56
5 -71 20 -15 15 -33 20 -74 20 -65 0 -106 14 -106 35 0 12 -14 15 -67 15 -61
0 -65 -1 -47 -15z"/>
<path d="M11729 2619 c-19 -44 -33 -58 -103 -104 -45 -28 -97 -55 -116 -59
-32 -6 -80 -36 -80 -50 0 -3 17 -6 38 -6 81 0 197 -44 274 -103 l48 -37 142
15 c79 8 159 17 178 19 19 3 54 6 78 7 23 2 42 5 42 7 0 10 -56 79 -109 135
-89 93 -184 156 -307 203 l-64 24 -21 -51z"/>
<path d="M5370 2115 l0 -105 80 0 80 0 0 105 0 105 -80 0 -80 0 0 -105z"/>
<path d="M8983 2165 c-161 -44 -268 -148 -289 -281 l-6 -41 -122 -6 c-143 -6
-233 -30 -301 -82 l-45 -35 0 55 0 55 -80 0 -80 0 0 -70 0 -69 -47 50 c-26 28
-70 63 -98 77 l-50 27 -215 -3 c-150 -2 -233 -7 -274 -17 -124 -32 -261 -126
-342 -236 -40 -55 -35 -74 16 -64 14 3 32 1 39 -4 11 -7 30 6 77 54 62 64 167
124 241 140 l32 6 -35 -58 c-53 -89 -66 -142 -71 -293 -4 -102 -1 -152 11
-204 32 -136 117 -250 226 -304 51 -25 65 -27 175 -27 112 0 123 2 170 27 57
31 78 49 118 96 30 38 30 39 18 -79 -16 -144 -74 -229 -184 -265 -38 -13 -74
-15 -156 -12 -105 5 -108 6 -248 65 -10 4 -13 -16 -13 -81 l0 -85 73 -23 c62
-20 94 -23 227 -23 123 0 166 4 206 18 116 40 189 115 236 242 22 58 23 75 26
438 l3 377 30 0 c27 0 29 2 29 42 0 106 117 168 318 168 l87 0 17 -58 c37
-125 148 -202 358 -247 189 -41 237 -56 284 -85 60 -39 86 -90 86 -173 0 -88
-35 -143 -117 -183 -50 -25 -72 -29 -165 -33 -146 -5 -242 19 -435 106 -10 4
-13 -18 -13 -94 l0 -100 73 -22 c125 -37 224 -51 356 -51 249 0 399 67 468
208 23 48 28 72 31 159 6 160 -35 254 -142 328 -65 44 -136 68 -311 106 -210
45 -289 91 -265 154 8 20 6 27 -5 31 -20 8 -20 76 -1 113 42 81 135 121 282
121 97 0 224 -29 304 -70 22 -11 44 -20 50 -20 6 0 10 36 10 94 l0 94 -77 21
c-43 11 -102 25 -132 31 -77 14 -296 11 -358 -5z m-1231 -476 c14 -8 23 -8 31
0 35 35 156 -20 204 -92 48 -71 63 -134 63 -257 0 -123 -15 -186 -63 -257 -93
-139 -321 -139 -414 0 -48 71 -63 134 -63 257 0 177 47 281 149 333 62 31 65
31 93 16z"/>
<path d="M40 1495 l0 -665 90 0 90 0 0 573 1 572 166 -442 167 -443 96 0 97 0
84 225 84 225 82 -82 83 -83 0 -272 0 -273 90 0 90 0 0 665 0 665 -139 0
c-123 0 -140 -2 -146 -17 -4 -10 -34 -90 -66 -177 -33 -88 -64 -166 -68 -174
-6 -10 -17 -3 -44 27 -20 23 -39 41 -42 41 -3 0 -5 -71 -5 -157 l0 -158 -47
-127 c-26 -71 -50 -128 -53 -128 -3 0 -66 161 -139 358 -74 196 -147 392 -163
435 l-30 77 -139 0 -139 0 0 -665z m1040 253 l0 -222 -41 39 c-22 22 -49 52
-60 67 l-19 26 57 156 c32 86 59 156 61 156 1 0 2 -100 2 -222z"/>
<path d="M10080 1970 l0 -140 -60 0 -60 0 0 -65 0 -65 60 0 60 0 0 -328 c0
-375 5 -409 69 -473 54 -55 115 -69 288 -69 l143 0 0 68 0 69 -125 6 c-142 7
-176 20 -195 69 -9 23 -14 130 -18 346 l-4 312 171 0 171 0 0 65 0 65 -170 0
-170 0 0 140 0 140 -80 0 -80 0 0 -140z"/>
<path d="M1849 1773 c-47 -48 -137 -144 -201 -213 -91 -98 -111 -125 -94 -125
12 1 27 5 34 9 7 4 12 4 12 0 0 -4 8 0 19 10 15 13 24 15 46 6 23 -9 32 -7 49
9 l21 20 -4 -131 c-4 -155 8 -227 55 -324 42 -90 127 -172 211 -205 80 -31
255 -38 339 -14 155 45 254 155 300 334 12 50 15 96 12 205 -5 154 -21 217
-78 308 -16 26 -25 50 -21 52 4 3 37 8 72 11 114 12 255 -31 348 -104 32 -25
42 -28 84 -24 l47 6 0 -387 0 -386 80 0 80 0 0 243 c0 368 18 473 91 543 29
28 29 28 29 5 0 -22 3 -23 38 -17 20 3 45 6 55 6 13 0 17 9 17 41 l0 41 78 -5
c42 -2 87 -8 100 -12 19 -6 22 -4 22 19 l0 27 152 -2 c84 -1 160 -4 170 -7 17
-4 18 -29 18 -443 l0 -439 79 0 79 0 4 323 c5 359 8 373 75 455 40 49 119 92
170 92 31 0 32 -1 35 -47 l3 -48 50 -6 c92 -11 162 -37 170 -61 4 -13 9 -177
12 -365 l5 -343 80 0 79 0 -3 383 c-3 352 -5 386 -23 430 -32 79 -84 138 -150
172 -56 28 -65 30 -179 30 -113 0 -125 -2 -173 -27 -29 -16 -68 -42 -88 -59
-29 -26 -38 -29 -50 -19 -9 7 -15 29 -15 51 l0 39 -250 0 c-176 0 -250 3 -250
11 0 8 -33 9 -112 5 -134 -7 -198 -15 -198 -26 0 -5 -27 -35 -60 -68 l-60 -60
0 69 0 69 -80 0 -79 0 -3 -85 -3 -85 -55 45 c-66 55 -174 108 -251 125 -71 16
-259 8 -315 -13 -38 -14 -44 -13 -110 9 -118 40 -281 32 -406 -21 -13 -5 -17
0 -20 25 l-3 31 -86 -88z m360 -125 c-27 -29 -49 -56 -49 -59 0 -3 13 -4 30
-1 16 2 43 -1 61 -7 29 -10 35 -8 72 25 l42 35 27 -33 c51 -61 71 -131 76
-260 3 -99 1 -128 -17 -186 -42 -138 -133 -212 -261 -212 -179 0 -280 136
-280 375 0 238 102 375 280 375 l67 0 -48 -52z"/>
<path d="M5850 1685 l0 -164 55 1 c54 2 55 2 55 31 0 29 0 30 20 12 17 -15 24
-16 46 -7 13 7 27 12 29 12 3 0 5 -166 5 -370 l0 -370 79 0 79 0 4 322 c6 361
9 380 75 458 53 61 120 90 211 90 114 0 166 -33 204 -131 19 -50 21 -80 25
-396 l5 -343 80 0 79 0 -3 383 c-3 350 -5 386 -22 427 -11 25 -28 57 -38 72
-11 16 -18 44 -18 71 l0 45 -82 7 c-46 4 -135 8 -198 9 -108 1 -118 -1 -170
-28 -30 -15 -76 -51 -102 -78 l-48 -50 0 71 0 71 -80 0 -79 0 -3 -107 -3 -107
-99 117 c-54 64 -100 117 -102 117 -2 0 -4 -74 -4 -165z"/>
<path d="M11151 1835 c-35 -8 -86 -22 -112 -30 l-49 -17 0 -79 c0 -43 1 -79 3
-79 2 0 41 14 88 31 71 27 101 33 202 37 76 3 117 1 117 -6 0 -5 16 -10 35 -9
43 1 111 -44 139 -93 11 -18 23 -55 26 -82 l6 -48 -177 0 c-98 0 -202 -5 -231
-11 -119 -26 -197 -77 -244 -161 -27 -50 -29 -59 -29 -168 0 -100 3 -120 22
-157 30 -55 83 -106 141 -135 42 -20 61 -23 177 -23 127 0 132 1 197 33 42 20
82 50 107 79 l41 46 0 -67 0 -66 80 0 80 0 0 343 c0 368 -4 402 -54 499 l-25
48 154 0 c197 0 249 -11 296 -60 l36 -37 41 24 c23 14 42 28 42 33 0 28 -53
79 -115 110 l-69 35 -301 8 c-165 4 -358 9 -430 12 -89 3 -150 0 -194 -10z
m453 -562 c-13 -121 -39 -186 -101 -245 -57 -56 -114 -78 -202 -78 -138 0
-203 53 -209 171 -9 161 75 201 436 207 l82 2 -6 -57z"/>
<path d="M12623 1830 c-65 -23 -101 -48 -147 -102 l-36 -42 0 72 0 72 -80 0
-80 0 0 -500 0 -500 80 0 80 0 0 243 c0 379 18 477 100 551 57 52 114 69 207
63 43 -2 88 -8 101 -12 22 -7 22 -6 22 84 l0 91 -97 0 c-70 -1 -113 -6 -150
-20z"/>
<path d="M5330 1679 c0 -146 1 -150 20 -144 20 6 20 2 20 -349 l0 -356 80 0
80 0 0 500 0 500 -100 0 -100 0 0 -151z"/>
<path d="M5590 1680 l0 -150 26 -6 c18 -5 34 -1 52 13 27 20 27 22 30 157 l3
136 -56 0 -55 0 0 -150z"/>
<path d="M9140 1775 l0 -55 177 0 c163 0 182 2 249 25 40 14 94 28 120 32 26
3 66 17 88 29 l41 24 -337 0 -338 0 0 -55z"/>
<path d="M750 734 l0 -104 55 0 55 0 0 95 c0 97 -2 102 -41 97 -4 -1 -21 3
-38 8 l-31 9 0 -105z"/>
</g>
</svg>
