<?xml version="1.0" standalone="no"?>
<!DOCTYPE svg PUBLIC "-//W3C//DTD SVG 20010904//EN"
 "http://www.w3.org/TR/2001/REC-SVG-20010904/DTD/svg10.dtd">
<svg version="1.0" xmlns="http://www.w3.org/2000/svg"
 width="1260.000000pt" height="480.000000pt" viewBox="0 0 1260.000000 480.000000"
 preserveAspectRatio="xMidYMid meet">
<metadata>
Created by potrace 1.15, written by Peter Selinger 2001-2017
</metadata>
<g transform="translate(0.000000,480.000000) scale(0.100000,-0.100000)"
fill="#000000" stroke="none">
<path d="M2145 4319 c-183 -24 -290 -42 -295 -48 -3 -4 -39 -15 -80 -25 -41
-11 -84 -25 -95 -31 -11 -7 -41 -18 -67 -25 -27 -7 -48 -16 -48 -20 0 -4 -21
-15 -47 -25 -27 -10 -50 -21 -53 -25 -3 -3 -41 -23 -85 -44 -162 -78 -368
-240 -510 -403 -210 -241 -373 -566 -435 -869 -12 -54 -27 -164 -35 -244 -12
-126 -12 -164 1 -295 25 -257 73 -431 175 -645 187 -390 490 -693 884 -885
133 -65 297 -125 341 -125 13 0 50 -9 82 -19 43 -15 97 -20 227 -24 143 -4
190 -10 300 -36 72 -17 145 -31 163 -31 44 0 85 23 118 65 14 19 35 35 45 35
26 0 240 66 313 96 610 255 1038 782 1144 1409 9 55 20 102 24 103 5 2 7 108
7 235 -1 128 -4 219 -8 202 -6 -26 -8 -22 -14 29 -12 99 -37 205 -72 315 -19
58 -31 109 -28 114 3 6 2 7 -4 4 -13 -8 -33 56 -27 85 4 20 3 20 -4 4 -7 -17
-10 -16 -21 12 -11 27 -11 35 0 50 13 15 12 16 -3 4 -15 -12 -19 -9 -37 27
-12 22 -19 46 -18 53 2 7 2 9 -1 5 -2 -5 -11 1 -19 12 -8 12 -11 26 -7 33 5 7
3 8 -6 3 -10 -6 -12 -4 -7 9 4 9 3 15 -2 11 -10 -6 -54 60 -54 81 0 7 -4 11
-8 9 -11 -7 -41 44 -33 57 4 6 3 8 -3 5 -12 -7 -108 104 -108 125 -1 7 -6 12
-11 11 -12 -2 -150 134 -146 144 1 4 -5 8 -15 9 -10 2 -30 17 -45 34 -16 16
-28 28 -28 25 0 -3 -16 6 -35 21 -19 14 -33 30 -30 34 3 4 -3 7 -12 6 -10 0
-18 4 -18 11 0 6 -4 15 -9 20 -5 5 -6 3 -2 -4 11 -19 -6 -15 -34 8 l-25 20 25
-7 c29 -7 26 -2 -9 16 -15 8 -21 8 -17 1 4 -6 4 -11 -1 -11 -12 1 -40 24 -39
32 1 3 -3 10 -8 15 -5 5 -6 2 -1 -6 5 -9 3 -12 -6 -9 -8 3 -13 11 -11 17 1 7
-2 10 -7 7 -14 -9 -42 5 -34 17 3 6 1 7 -5 3 -7 -4 -17 -4 -23 0 -8 5 -8 8 0
13 6 4 -14 15 -44 26 -30 10 -55 21 -55 25 0 4 -27 15 -60 25 -33 10 -60 21
-60 25 0 8 -53 21 -101 25 -58 6 -138 29 -132 38 4 7 -1 8 -12 4 -9 -4 -23 -3
-29 2 -28 22 -440 45 -551 30z m310 -50 c665 -57 1243 -454 1529 -1049 364
-757 174 -1654 -463 -2184 -226 -188 -530 -336 -813 -396 -107 -23 -156 -25
-230 -9 -64 14 -178 64 -178 78 0 24 86 54 180 63 289 27 564 126 820 295 135
90 330 279 423 410 147 207 250 464 287 718 15 98 15 344 0 445 -66 462 -299
860 -670 1145 -197 151 -439 260 -705 316 -97 21 -136 24 -335 23 -247 0 -325
-11 -529 -75 -129 -41 -354 -154 -471 -237 -122 -86 -316 -280 -402 -402 -285
-403 -386 -928 -268 -1395 95 -379 328 -725 638 -948 120 -87 160 -106 245
-117 80 -11 232 -1 292 20 62 21 384 81 465 87 75 5 94 2 164 -22 56 -19 81
-24 89 -16 6 6 46 11 91 11 98 0 151 -21 151 -60 0 -20 -8 -28 -49 -43 -28
-10 -81 -25 -120 -33 -38 -8 -92 -27 -120 -43 -28 -15 -76 -42 -106 -59 -47
-27 -87 -39 -227 -68 -41 -8 -24 -22 35 -29 31 -4 109 -28 172 -53 103 -41
126 -46 213 -50 l98 -4 -22 -24 c-32 -34 -91 -31 -273 12 -142 35 -155 36
-219 25 -138 -23 -171 -15 -315 71 -51 31 -91 48 -105 46 -20 -4 -18 -6 16
-27 21 -13 36 -25 34 -27 -7 -7 -118 31 -232 79 -332 141 -641 406 -832 712
-117 187 -201 399 -245 616 -20 101 -23 142 -23 354 1 211 4 253 24 345 65
303 196 584 374 805 130 161 330 337 498 436 89 53 364 171 459 197 218 60
434 80 655 61z m65 -183 c719 -96 1288 -626 1440 -1341 34 -157 39 -423 11
-584 -74 -435 -316 -811 -689 -1069 -99 -69 -311 -173 -430 -212 -94 -30 -244
-63 -337 -74 l-50 -6 23 20 c13 11 40 22 60 25 160 27 398 107 521 177 183
103 381 272 506 433 175 224 285 472 332 745 25 147 22 395 -6 540 -44 222
-121 410 -253 611 -75 115 -254 296 -383 388 -167 117 -393 214 -613 262 -124
27 -404 37 -535 19 -468 -62 -886 -316 -1141 -695 -26 -38 -74 -124 -106 -190
-208 -424 -224 -869 -47 -1303 80 -198 183 -350 347 -512 126 -125 230 -201
382 -280 111 -58 112 -58 77 -65 -58 -11 -174 10 -227 41 -96 55 -230 165
-333 272 -380 393 -535 939 -419 1480 43 203 129 405 251 588 100 150 303 353
453 453 350 233 761 331 1166 277z m-175 -133 c-223 -11 -356 -33 -525 -90
-239 -80 -434 -205 -615 -395 -180 -188 -303 -414 -369 -675 -51 -199 -59
-438 -21 -631 95 -488 457 -928 912 -1108 40 -16 73 -32 73 -36 0 -37 -192 44
-345 143 -295 192 -512 476 -625 818 -102 309 -97 649 17 964 217 604 809
1017 1453 1014 58 -1 78 -2 45 -4z m-156 -89 c5 -27 9 -37 10 -23 0 15 4 41 7
58 6 30 9 32 43 29 31 -3 36 -7 39 -31 4 -33 22 -26 22 9 0 20 5 24 29 24 33
0 40 -13 42 -73 1 -23 3 -33 6 -22 22 96 22 96 56 93 30 -3 32 -6 38 -48 l5
-45 8 38 c9 43 23 52 61 43 24 -6 25 -9 20 -64 l-6 -57 19 50 c16 44 22 50 48
50 29 0 29 -1 27 -50 l-3 -50 23 43 c20 40 24 43 52 38 16 -4 33 -10 37 -14 5
-5 -1 -37 -12 -73 -11 -35 -20 -66 -19 -69 0 -3 16 26 35 63 33 64 37 68 62
62 41 -10 44 -17 27 -65 -8 -24 -14 -45 -12 -47 2 -2 16 15 31 37 28 43 29 43
64 34 27 -8 28 -24 1 -75 -28 -56 -19 -58 20 -4 34 48 46 53 76 32 17 -13 17
-16 -11 -65 -27 -48 -32 -52 -66 -52 -29 0 -38 4 -38 18 -1 16 -1 16 -11 0 -9
-16 -50 -17 -531 -17 -362 0 -526 3 -535 11 -9 7 -13 7 -13 -1 0 -15 -73 -14
-88 1 -9 9 -12 9 -12 -1 0 -8 -14 -11 -47 -9 l-48 3 -19 54 c-19 52 -19 54 -1
67 30 22 43 17 75 -33 27 -42 30 -44 24 -18 -4 17 -11 41 -16 55 -7 19 -5 27
8 37 29 21 48 15 68 -22 24 -44 29 -40 15 9 -12 42 -7 51 32 61 24 6 29 2 53
-47 l25 -53 -6 61 -6 61 38 7 c20 4 39 5 41 3 3 -2 11 -24 18 -48 l14 -44 1
51 c1 37 5 54 17 58 38 14 51 6 67 -41 l16 -48 0 52 c1 49 3 52 29 55 37 5 42
-1 51 -58z m-515 -769 c147 -290 264 -530 261 -535 -4 -6 -24 -10 -46 -10
l-39 0 0 -95 0 -95 80 0 c76 0 80 -1 80 -22 -1 -15 -55 -84 -155 -196 -85 -95
-155 -179 -155 -187 0 -37 39 -4 165 138 75 83 139 153 143 154 4 1 19 -23 34
-55 26 -53 92 -132 147 -175 23 -18 23 -21 19 -170 l-4 -152 -39 -77 c-22 -43
-43 -78 -46 -78 -11 0 -31 67 -27 92 2 15 11 24 26 26 27 4 29 22 2 29 -11 3
-20 7 -20 10 0 7 33 58 54 80 10 13 16 26 12 30 -12 12 -60 -23 -96 -71 -34
-45 -37 -46 -88 -46 -46 0 -53 -3 -50 -17 2 -13 15 -19 46 -21 l42 -3 0 -52
c0 -37 7 -65 26 -97 32 -56 27 -77 -32 -140 -77 -83 -145 -106 -218 -76 -34
14 -69 53 -60 67 2 4 0 10 -6 14 -11 7 -14 78 -4 88 4 3 15 -4 24 -16 l18 -22
13 28 c17 37 2 61 -38 65 -26 3 -34 -3 -51 -33 -22 -36 -22 -45 4 -155 3 -14
27 -41 52 -61 37 -28 57 -36 97 -38 28 -2 51 -4 53 -5 4 -5 -49 -160 -59 -172
-7 -9 -18 -10 -39 -2 -52 18 -52 18 -17 148 4 14 -6 -2 -22 -34 -41 -80 -44
-83 -86 -63 -39 19 -42 31 -20 84 22 51 18 64 -6 23 -37 -62 -48 -70 -75 -58
-29 14 -30 38 -4 97 28 61 19 61 -18 1 -34 -55 -48 -60 -83 -31 l-24 20 25 48
c14 26 46 80 72 120 26 40 46 73 43 73 -2 0 -29 -35 -59 -77 -31 -43 -68 -93
-84 -112 l-29 -34 -31 23 c-18 13 -32 29 -32 35 0 7 18 41 41 76 l41 64 -55
-57 c-31 -32 -60 -58 -65 -58 -5 0 -19 11 -32 25 -32 34 -25 47 110 188 61 64
109 117 106 117 -3 0 -45 -40 -93 -89 -49 -49 -107 -106 -131 -126 l-43 -38
-24 23 c-14 13 -25 30 -25 39 0 9 35 51 78 95 l77 79 -85 -72 c-47 -39 -90
-71 -97 -71 -6 0 -22 14 -34 31 l-22 32 64 59 64 60 -67 -46 c-37 -25 -70 -46
-75 -46 -7 0 -53 64 -53 73 0 2 29 25 65 52 35 27 63 51 61 52 -2 2 -30 -12
-62 -32 -72 -43 -88 -44 -104 -6 -15 37 -13 41 56 86 30 20 54 39 51 41 -2 2
-26 -7 -53 -20 -84 -40 -93 -41 -104 -11 -13 34 -9 40 52 71 27 14 48 27 45
30 -2 2 -32 -4 -66 -15 l-62 -19 -10 25 c-16 44 -10 53 54 84 63 30 59 31 -26
8 -54 -15 -69 -6 -65 40 3 21 15 29 78 53 43 17 60 26 40 23 -19 -4 -58 -9
-86 -12 -49 -5 -51 -5 -58 22 -4 15 -3 32 1 36 5 5 49 20 98 34 73 20 81 24
40 20 -167 -19 -152 -21 -158 11 -8 38 9 50 86 61 l62 8 -75 5 c-70 5 -75 7
-78 29 -5 31 12 40 78 42 95 2 115 17 24 18 -94 1 -120 14 -110 54 6 25 10 27
64 28 31 1 71 5 87 9 29 7 28 8 -11 9 -23 0 -62 4 -88 7 -45 7 -47 8 -44 38
l3 31 70 3 70 4 -65 16 c-69 18 -78 29 -65 79 6 24 8 25 65 18 33 -4 60 -5 60
-2 0 3 -25 13 -55 22 -44 14 -55 22 -55 39 0 12 6 30 13 39 11 15 17 15 87 -3
107 -28 118 -24 25 11 -43 16 -83 33 -88 38 -14 14 12 101 29 101 7 0 44 -11
81 -25 37 -13 69 -22 71 -20 2 2 -30 19 -72 39 -77 35 -87 48 -62 81 13 18 16
18 100 -12 47 -17 86 -30 86 -28 0 1 -24 15 -52 30 -85 44 -107 63 -101 85 9
34 30 45 61 30 53 -25 92 -40 92 -37 0 2 -25 21 -55 41 -30 20 -55 38 -55 41
0 12 43 75 52 75 6 0 36 -14 67 -31 l56 -32 -54 49 -54 50 17 26 c20 31 29 29
96 -15 l45 -30 -49 51 -48 50 18 26 c11 14 24 26 31 26 7 0 38 -21 70 -47 l58
-47 -54 62 -55 63 22 21 c20 21 21 21 49 3 15 -10 78 -66 138 -124 l110 -106
-111 115 c-136 141 -144 153 -113 186 12 13 26 24 31 24 5 0 32 -24 60 -52
l51 -53 -37 55 c-20 30 -36 62 -36 72 0 15 24 37 42 38 3 0 126 -236 272 -525z
m1610 502 c16 -12 15 -17 -23 -65 -23 -29 -40 -52 -37 -52 2 0 25 18 52 39 37
31 51 38 65 30 33 -17 32 -31 -8 -72 -69 -73 -70 -82 -4 -33 67 48 77 51 95
23 9 -14 -2 -30 -64 -93 l-75 -76 62 49 c93 74 108 80 133 58 21 -19 21 -19
-32 -73 l-53 -55 40 23 c22 13 48 29 58 34 19 12 44 1 61 -28 9 -14 6 -21 -19
-39 -16 -12 -41 -32 -55 -45 -25 -22 -24 -22 34 3 71 30 83 31 91 4 8 -23 -2
-33 -83 -80 -29 -17 -51 -33 -49 -35 2 -3 33 9 68 26 74 35 95 37 108 11 13
-24 9 -28 -97 -81 -46 -23 -81 -44 -79 -47 3 -2 22 4 44 15 21 11 64 28 97 38
57 18 58 18 72 -1 18 -25 7 -36 -67 -70 -33 -15 -59 -29 -57 -31 2 -2 33 5 69
16 81 25 84 25 97 -4 13 -30 6 -37 -63 -60 -58 -19 -95 -41 -55 -32 150 32
146 32 152 -18 3 -29 1 -31 -82 -58 -47 -16 -74 -26 -60 -23 14 3 55 8 92 12
72 6 75 5 80 -47 3 -23 -2 -26 -62 -41 l-65 -17 73 -1 72 -1 0 -30 c0 -32 12
-28 -150 -54 l-85 -13 123 5 123 5 -3 -44 -3 -44 -43 -3 c-52 -4 -46 -22 8
-22 40 0 50 -11 50 -56 0 -28 -36 -47 -76 -40 -13 3 -26 1 -29 -3 -2 -5 18
-11 46 -15 l50 -7 -3 -37 -3 -37 -75 3 c-41 2 -88 5 -105 7 l-30 4 30 -9 c17
-5 63 -14 103 -21 l72 -11 0 -34 c0 -23 -6 -37 -17 -41 -15 -6 -125 6 -216 24
-18 3 -30 3 -27 0 3 -3 50 -13 105 -23 123 -21 146 -33 136 -71 -9 -31 -25
-34 -151 -21 l-65 6 89 -23 c104 -28 114 -35 97 -71 -11 -25 -14 -26 -63 -20
-28 4 -85 18 -126 31 -42 13 -78 23 -80 21 -2 -2 41 -19 95 -36 54 -18 110
-39 125 -46 25 -13 26 -17 16 -44 -5 -17 -14 -32 -18 -35 -4 -3 -38 4 -75 16
-37 11 -75 23 -84 26 -9 2 21 -14 67 -36 l82 -40 -17 -35 c-9 -21 -24 -36 -34
-36 -9 0 -50 13 -90 30 -41 16 -76 30 -79 30 -3 0 31 -20 75 -43 44 -24 81
-50 83 -58 2 -9 -5 -26 -16 -38 l-18 -23 -69 31 c-72 32 -71 30 9 -27 l47 -32
-18 -30 c-9 -17 -23 -30 -29 -30 -16 0 -118 58 -181 104 -29 21 -53 36 -53 33
0 -3 47 -40 105 -82 58 -43 105 -84 105 -91 0 -7 -11 -25 -24 -41 l-24 -27
-40 27 c-23 15 -77 56 -122 92 -44 35 -80 63 -80 61 0 -2 45 -43 100 -91 54
-47 102 -95 105 -106 8 -25 -31 -72 -51 -61 -7 4 -54 45 -106 91 -92 84 -91
81 8 -25 28 -30 57 -65 64 -79 12 -23 11 -28 -10 -50 -13 -14 -27 -25 -32 -25
-4 0 -25 16 -47 35 -52 47 -58 44 -21 -9 16 -25 30 -49 30 -55 0 -16 -57 -52
-73 -45 -13 4 -67 68 -135 158 -43 56 -21 15 27 -52 26 -37 56 -82 66 -101
l18 -35 -29 -23 c-16 -13 -34 -23 -40 -23 -6 0 -25 21 -43 46 -41 57 -50 52
-15 -9 28 -51 26 -60 -16 -82 -29 -15 -29 -14 -61 30 -18 25 -34 45 -36 45 -1
0 6 -22 17 -50 l19 -49 -22 -16 c-37 -26 -55 -18 -87 37 -35 61 -36 60 -14
-12 15 -51 15 -55 -2 -67 -39 -29 -60 -17 -90 52 -15 35 -29 63 -31 62 -1 -2
4 -27 12 -57 8 -30 13 -56 11 -58 -2 -2 -22 2 -44 8 -29 7 -43 18 -51 38 l-11
27 5 -28 c5 -26 4 -27 -36 -27 -23 0 -58 -5 -78 -11 -31 -9 -49 -7 -109 11
-40 12 -72 24 -72 26 0 2 36 77 81 166 75 149 82 161 95 143 43 -61 83 -105
127 -139 42 -34 58 -40 107 -43 49 -4 65 0 98 21 22 14 43 23 46 20 3 -2 4 -1
2 2 -4 5 3 22 43 104 18 38 -34 150 -70 150 -17 0 -41 -49 -34 -70 7 -22 31
-27 37 -8 9 25 28 -5 28 -43 0 -26 -7 -46 -20 -59 -11 -11 -20 -24 -20 -30 0
-15 -51 -36 -94 -39 -71 -4 -173 76 -226 178 -11 22 -8 34 31 112 41 84 44 88
78 91 24 2 36 8 36 18 0 11 -16 16 -64 20 l-65 5 -11 55 c-13 69 -49 130 -111
193 l-47 48 79 159 c43 88 83 160 88 160 5 0 23 -17 40 -37 17 -20 89 -102
160 -182 120 -135 154 -163 163 -136 2 6 -58 79 -132 164 -108 121 -134 156
-125 166 17 21 3 35 -34 35 -28 0 -32 3 -31 28 0 27 1 27 75 32 l75 5 3 88 3
87 -36 0 c-19 0 -35 2 -35 5 0 3 108 222 240 486 186 370 250 489 280 519 44
44 48 46 74 27z m-1415 -15 c10 -16 10 -16 11 1 0 16 31 17 500 17 382 0 500
-3 500 -12 0 -9 3 -9 12 0 15 15 78 16 78 1 0 -8 4 -8 14 0 15 13 159 13 154
1 -6 -17 -540 -610 -549 -610 -5 0 -9 -5 -9 -11 0 -6 -48 -65 -107 -131 -60
-67 -119 -134 -133 -151 l-26 -30 -139 159 c-77 88 -150 170 -163 184 -82 88
-518 582 -520 589 -2 5 80 9 182 9 164 1 187 -1 195 -16z m995 -572 l-225
-450 -49 0 c-27 0 -52 5 -55 10 -12 20 -110 70 -137 70 -16 0 -28 5 -28 11 0
12 219 259 230 259 4 0 19 -29 35 -65 15 -36 30 -65 34 -65 4 0 15 6 24 13 16
11 13 18 -29 79 l-47 67 232 260 c128 144 234 261 237 261 2 0 -97 -202 -222
-450z m-1070 173 c113 -128 206 -237 206 -244 0 -6 -18 -36 -40 -68 -22 -31
-40 -60 -40 -64 0 -3 9 -11 20 -17 18 -10 23 -4 53 61 l32 72 118 -134 c64
-73 117 -136 117 -139 0 -3 -26 -13 -58 -22 -32 -9 -76 -31 -97 -48 -30 -24
-47 -30 -74 -28 l-36 3 -218 430 c-120 237 -221 437 -225 445 -15 36 46 -26
242 -247z m673 -588 c23 -14 43 -30 43 -35 0 -6 16 -28 36 -50 31 -34 37 -48
41 -101 l6 -61 -39 20 c-55 28 -80 59 -95 120 -15 60 -39 83 -104 101 -48 12
-97 6 -148 -20 -46 -23 -106 -27 -88 -5 11 13 92 49 136 60 11 3 53 3 94 0 56
-3 85 -10 118 -29z m274 -65 c0 -5 1 -26 1 -45 0 -80 4 -75 -66 -75 l-64 0 -7
36 c-3 20 -17 47 -31 61 -13 13 -24 26 -24 28 0 10 190 5 191 -5z m-301 -42
c6 -24 15 -51 20 -60 15 -27 14 -28 -40 -28 l-51 0 1 -191 c1 -105 0 -192 -2
-194 -2 -2 -34 26 -71 62 l-67 65 0 119 0 119 -177 2 -178 3 -3 73 -3 72 280
0 280 0 11 -42z m1407 -140 c-15 -385 -154 -704 -427 -978 -154 -154 -300
-254 -493 -336 -98 -41 -137 -49 -137 -27 0 4 46 26 102 48 114 44 273 135
370 213 100 79 248 240 317 343 163 242 246 490 258 767 3 67 8 122 11 122 3
0 2 -69 -1 -152z m-1333 19 c17 -12 14 -22 -45 -140 -35 -70 -67 -127 -71
-127 -5 0 -8 63 -8 140 l0 140 53 0 c29 0 61 -6 71 -13z m-421 -52 c12 -82 44
-122 248 -304 129 -116 169 -171 195 -271 21 -83 14 -144 -26 -218 -26 -49
-70 -92 -94 -92 -15 0 -4 41 15 54 40 27 59 68 59 123 0 57 -29 145 -67 207
-28 43 -142 158 -218 218 -97 77 -160 178 -171 272 l-7 56 30 0 c28 0 31 -3
36 -45z m273 -464 c7 -10 14 -115 18 -281 l7 -265 -32 -72 c-17 -40 -35 -73
-39 -73 -4 0 -24 38 -44 84 l-36 84 -7 329 -6 328 64 -59 c35 -33 69 -66 75
-75z m-148 -587 c46 -92 82 -167 80 -168 -7 -4 -394 -66 -411 -66 -15 0 -16 6
-11 43 3 23 13 68 21 100 14 50 21 61 52 77 53 29 104 79 135 133 15 26 33 47
40 47 6 0 49 -75 94 -166z"/>
<path d="M2235 984 c-27 -7 -67 -14 -87 -14 -51 0 -56 -16 -8 -23 21 -3 52
-14 69 -26 35 -25 96 -28 148 -6 19 8 46 15 60 15 35 0 19 18 -41 46 -58 27
-71 28 -141 8z"/>
<path d="M2230 3560 c-124 -22 -244 -95 -316 -192 -44 -60 -44 -60 -27 -91 9
-18 44 -59 77 -92 155 -152 385 -187 578 -89 60 30 167 129 193 178 l18 33
-31 45 c-106 155 -308 240 -492 208z m237 -78 c41 -15 49 -22 51 -47 9 -73
-48 -162 -123 -196 -132 -60 -285 34 -285 175 0 40 3 47 30 61 42 22 63 20 50
-4 -38 -72 29 -171 117 -171 71 0 133 51 133 109 0 17 -6 21 -34 21 -19 0 -42
3 -51 6 -14 6 -45 53 -45 70 0 11 106 -5 157 -24z m-380 -192 c29 -45 57 -72
106 -96 66 -34 122 -40 193 -19 97 28 184 133 184 224 0 33 14 26 69 -35 58
-63 58 -65 -11 -134 -88 -88 -187 -131 -308 -131 -90 -1 -145 12 -223 54 -57
30 -157 126 -157 152 0 7 23 37 51 66 l51 54 14 -55 c8 -30 22 -66 31 -80z"/>
</g>
</svg>
